<svg width="14" height="14" viewBox="0 0 14 14" fill="none" xmlns="http://www.w3.org/2000/svg">
<path d="M7.23389 0.355469V2.14658L9.02322 1.11325L9.46766 1.88347L7.23389 3.1728V6.25191L9.90055 4.71236V2.13325H10.7894V4.19902L12.341 3.30391L12.7854 4.07369L11.2339 4.96925L13.0232 6.00214L12.5788 6.77236L10.345 5.48214L7.67833 7.02169L10.3454 8.56169L12.5788 7.27191L13.0232 8.04169L11.2339 9.07458L12.7854 9.97058L12.341 10.7404L10.7894 9.8448V11.911H9.90055V9.33147L7.23389 7.79147V10.871L9.46766 12.1608L9.02322 12.9306L7.23389 11.8972V13.6888H6.345V11.8972L4.55566 12.9306L4.11122 12.1608L6.345 10.871V7.79147L3.67833 9.33102V11.911H2.78944V9.84436L1.23833 10.7404L0.793886 9.97058L2.34455 9.07458L0.555664 8.04169L1.00011 7.27191L3.23344 8.56125L5.90011 7.02169L3.23389 5.48214L1.00011 6.77236L0.555664 6.00214L2.345 4.96925L0.793886 4.07369L1.23833 3.30391L2.78944 4.19902V2.13325H3.67833V4.71236L6.345 6.25191V3.1728L4.11122 1.88347L4.55566 1.11325L6.345 2.14658V0.355469H7.23389Z" fill="#46464F" fill-opacity="0.38"/>
</svg>
