<svg width="20" height="20" viewBox="0 0 20 20" fill="none" xmlns="http://www.w3.org/2000/svg">
<path d="M10.2339 3.35547V5.14658L12.0232 4.11325L12.4677 4.88347L10.2339 6.1728V9.25191L12.9006 7.71236V5.13325H13.7894V7.19902L15.341 6.30391L15.7854 7.07369L14.2339 7.96925L16.0232 9.00214L15.5788 9.77236L13.345 8.48214L10.6783 10.0217L13.3454 11.5617L15.5788 10.2719L16.0232 11.0417L14.2339 12.0746L15.7854 12.9706L15.341 13.7404L13.7894 12.8448V14.911H12.9006V12.3315L10.2339 10.7915V13.871L12.4677 15.1608L12.0232 15.9306L10.2339 14.8972V16.6888H9.345V14.8972L7.55566 15.9306L7.11122 15.1608L9.345 13.871V10.7915L6.67833 12.331V14.911H5.78944V12.8444L4.23833 13.7404L3.79389 12.9706L5.34455 12.0746L3.55566 11.0417L4.00011 10.2719L6.23344 11.5612L8.90011 10.0217L6.23389 8.48214L4.00011 9.77236L3.55566 9.00214L5.345 7.96925L3.79389 7.07369L4.23833 6.30391L5.78944 7.19902V5.13325H6.67833V7.71236L9.345 9.25191V6.1728L7.11122 4.88347L7.55566 4.11325L9.345 5.14658V3.35547H10.2339Z" fill="#46464F" fill-opacity="0.38"/>
</svg>
