<svg width="15" height="12" viewBox="0 0 15 12" fill="none" xmlns="http://www.w3.org/2000/svg">
<path d="M14.8887 11.5564H13.9998V10.6675H1.55539V11.5564H0.666504V0.889757C0.666504 0.780868 0.706504 0.675979 0.778948 0.594646C0.850948 0.513312 0.950949 0.461313 1.05895 0.448424L1.11095 0.445312H14.4443C14.5532 0.445312 14.6581 0.485313 14.7394 0.557757C14.8207 0.629757 14.8727 0.729757 14.8856 0.837757L14.8887 0.889757V11.5564ZM13.9998 1.3342H1.55539V9.77865H13.9998V1.3342ZM12.6665 8.88976H11.7776V2.22309H12.6665V8.88976ZM3.77762 8.88976H2.88873V2.22309H3.77762V8.88976ZM5.99984 8.88976H5.11095V2.22309H5.99984V8.88976ZM8.22206 8.88976H7.33317V2.22309H8.22206V8.88976ZM10.4443 8.88976H9.55539V2.22309H10.4443V8.88976Z" fill="black"/>
</svg>
