<svg width="20" height="20" viewBox="0 0 20 20" fill="none" xmlns="http://www.w3.org/2000/svg">
<path d="M16.8892 15.5564H16.0003V14.6675H3.55588V15.5564H2.66699V4.88976C2.66699 4.78087 2.70699 4.67598 2.77944 4.59465C2.85144 4.51331 2.95144 4.46131 3.05944 4.44842L3.11144 4.44531H16.4448C16.5537 4.44531 16.6585 4.48531 16.7399 4.55776C16.8212 4.62976 16.8732 4.72976 16.8861 4.83776L16.8892 4.88976V15.5564ZM16.0003 5.3342H3.55588V13.7786H16.0003V5.3342ZM14.667 12.8898H13.7781V6.22309H14.667V12.8898ZM5.7781 12.8898H4.88921V6.22309H5.7781V12.8898ZM8.00033 12.8898H7.11144V6.22309H8.00033V12.8898ZM10.2225 12.8898H9.33366V6.22309H10.2225V12.8898ZM12.4448 12.8898H11.5559V6.22309H12.4448V12.8898Z" fill="black"/>
</svg>
