<svg width="14" height="14" viewBox="0 0 14 14" fill="none" xmlns="http://www.w3.org/2000/svg">
<path d="M7.22222 0.888672C10.6587 0.888672 13.4444 3.67445 13.4444 7.11089C13.4444 10.5473 10.6587 13.3331 7.22222 13.3331C3.78578 13.3331 1 10.5473 1 7.11089C1 3.67445 3.78578 0.888672 7.22222 0.888672Z" stroke="black"/>
<path d="M9.39446 7.55664C9.21757 8.42464 8.53579 9.11042 7.66602 9.28731V10.1886C7.70557 10.1829 7.74513 10.1793 7.78424 10.1722C9.06424 9.93842 10.0709 8.91931 10.2887 7.6362C10.2931 7.60997 10.2918 7.58286 10.2953 7.55664H9.39446Z" fill="black"/>
<path d="M10.29 6.59222C10.0696 5.28289 9.04113 4.258 7.73135 4.042C7.71002 4.03844 7.68735 4.04022 7.66602 4.03711V4.93889C8.53757 5.11578 9.21802 5.79533 9.3949 6.66733H10.2962C10.2927 6.64244 10.294 6.61667 10.29 6.59222Z" fill="black"/>
<path d="M6.77786 9.28509C5.90719 9.10775 5.22586 8.42864 5.04897 7.55664H4.14941C4.15341 7.58553 4.15208 7.61531 4.15697 7.6442C4.38141 8.94553 5.40719 9.96509 6.70941 10.1811C6.73164 10.1846 6.75519 10.1838 6.77786 10.1869V9.28509Z" fill="black"/>
<path d="M5.04986 6.66768C5.22675 5.79879 5.90453 5.11435 6.77742 4.93702V4.04102C6.73653 4.04679 6.69342 4.04546 6.65298 4.05302C5.35609 4.29302 4.34942 5.32946 4.1472 6.63346C4.14542 6.64457 4.14631 6.65613 4.14453 6.66768H5.04986Z" fill="black"/>
<path d="M7.2219 6.22266C7.71301 6.22266 8.11079 6.62043 8.11079 7.11155C8.11079 7.60266 7.71301 8.00043 7.2219 8.00043C6.73079 8.00043 6.33301 7.60266 6.33301 7.11155C6.33301 6.62043 6.73079 6.22266 7.2219 6.22266Z" stroke="black"/>
</svg>
