<svg width="20" height="20" viewBox="0 0 20 20" fill="none" xmlns="http://www.w3.org/2000/svg">
<path d="M10.2222 3.88867C13.6587 3.88867 16.4444 6.67445 16.4444 10.1109C16.4444 13.5473 13.6587 16.3331 10.2222 16.3331C6.78578 16.3331 4 13.5473 4 10.1109C4 6.67445 6.78578 3.88867 10.2222 3.88867Z" stroke="black"/>
<path d="M12.3945 10.5566C12.2176 11.4246 11.5358 12.1104 10.666 12.2873V13.1886C10.7056 13.1829 10.7451 13.1793 10.7842 13.1722C12.0642 12.9384 13.0709 11.9193 13.2887 10.6362C13.2931 10.61 13.2918 10.5829 13.2953 10.5566H12.3945Z" fill="black"/>
<path d="M13.29 9.59222C13.0696 8.28289 12.0411 7.258 10.7313 7.042C10.71 7.03844 10.6873 7.04022 10.666 7.03711V7.93889C11.5376 8.11578 12.218 8.79533 12.3949 9.66733H13.2962C13.2927 9.64244 13.294 9.61667 13.29 9.59222Z" fill="black"/>
<path d="M9.77786 12.2851C8.90719 12.1078 8.22586 11.4286 8.04897 10.5566H7.14941C7.15341 10.5855 7.15208 10.6153 7.15697 10.6442C7.38141 11.9455 8.40719 12.9651 9.70941 13.1811C9.73164 13.1846 9.75519 13.1838 9.77786 13.1869V12.2851Z" fill="black"/>
<path d="M8.04986 9.66768C8.22675 8.79879 8.90453 8.11435 9.77742 7.93702V7.04102C9.73653 7.04679 9.69342 7.04546 9.65298 7.05302C8.35609 7.29302 7.34942 8.32946 7.1472 9.63346C7.14542 9.64457 7.14631 9.65613 7.14453 9.66768H8.04986Z" fill="black"/>
<path d="M10.2219 9.22266C10.713 9.22266 11.1108 9.62043 11.1108 10.1115C11.1108 10.6027 10.713 11.0004 10.2219 11.0004C9.73079 11.0004 9.33301 10.6027 9.33301 10.1115C9.33301 9.62043 9.73079 9.22266 10.2219 9.22266Z" stroke="black"/>
</svg>
