<svg width="14" height="17" viewBox="0 0 14 17" fill="none" xmlns="http://www.w3.org/2000/svg">
<path d="M1.88916 9.11133H12.5558V15.778C12.5558 16.0233 12.3567 16.2224 12.1114 16.2224H2.3336C2.08827 16.2224 1.88916 16.0233 1.88916 15.778V9.11133Z" stroke="#46464F" stroke-opacity="0.38"/>
<path d="M13.889 9.11133H12.5557" stroke="#46464F" stroke-opacity="0.38"/>
<path d="M1.889 9.11133H0.555664" stroke="#46464F" stroke-opacity="0.38"/>
<path d="M1.88916 9.11176C1.88916 8.12998 2.68516 7.33398 3.66694 7.33398H3.55005H3.85983" stroke="#46464F" stroke-opacity="0.38"/>
<path d="M4.82324 7.33398H5.15213C5.62369 7.33398 6.07613 7.5211 6.40946 7.85443L9.88902 11.334" stroke="#46464F" stroke-opacity="0.38"/>
<path d="M12.4973 -6.3882C12.4995 -4.2402 10.7222 -3.68464 10.7222 -1.49931C10.7222 0.686023 12.4995 1.24158 12.4973 3.38958C12.4951 5.53758 10.7222 6.13047 10.7222 8.27847M12.4973 -16.1953C12.4995 -14.0473 10.7222 -13.4918 10.7222 -11.3064C10.7222 -9.12109 12.4995 -8.56553 12.4973 -6.41753V-6.3882C12.4995 -4.2402 10.7222 -3.68464 10.7222 -1.49931C10.7222 0.686023 12.4995 1.24158 12.4973 3.38958C12.4951 5.53758 10.7222 6.13047 10.7222 8.27847" stroke="#46464F" stroke-opacity="0.38" stroke-linejoin="round"/>
<path d="M10.6306 -6.9214C10.6328 -4.7734 8.85547 -4.21785 8.85547 -2.03251C8.85547 0.15282 10.6328 0.708375 10.6306 2.85638C10.6284 5.00437 8.85547 5.59726 8.85547 7.74526M10.6306 -16.7285C10.6328 -14.5805 8.85547 -14.025 8.85547 -11.8396C8.85547 -9.65429 10.6328 -9.09874 10.6306 -6.95074V-6.9214C10.6328 -4.7734 8.85547 -4.21785 8.85547 -2.03251C8.85547 0.15282 10.6328 0.708375 10.6306 2.85638C10.6284 5.00437 8.85547 5.59726 8.85547 7.74526" stroke="#46464F" stroke-opacity="0.38" stroke-linejoin="round"/>
<circle cx="4.11127" cy="5.33442" r="1.27778" stroke="#46464F" stroke-opacity="0.38"/>
</svg>
