<svg width="20" height="20" viewBox="0 0 20 20" fill="none" xmlns="http://www.w3.org/2000/svg">
<g clip-path="url(#clip0_712_13747)">
<path d="M4.88867 9.11133H15.5553V15.778C15.5553 16.0233 15.3562 16.2224 15.1109 16.2224H5.33312C5.08778 16.2224 4.88867 16.0233 4.88867 15.778V9.11133Z" stroke="#46464F" stroke-opacity="0.38"/>
<path d="M16.889 9.11133H15.5557" stroke="#46464F" stroke-opacity="0.38"/>
<path d="M4.889 9.11133H3.55566" stroke="#46464F" stroke-opacity="0.38"/>
<path d="M4.88867 9.11176C4.88867 8.12998 5.68467 7.33398 6.66645 7.33398H6.54956H6.85934" stroke="#46464F" stroke-opacity="0.38"/>
<path d="M7.82324 7.33398H8.15213C8.62369 7.33398 9.07613 7.5211 9.40946 7.85443L12.889 11.334" stroke="#46464F" stroke-opacity="0.38"/>
<path d="M15.4978 -6.3882C15.5 -4.2402 13.7227 -3.68464 13.7227 -1.49931C13.7227 0.686023 15.5 1.24158 15.4978 3.38958C15.4955 5.53758 13.7227 6.13047 13.7227 8.27847M15.4978 -16.1953C15.5 -14.0473 13.7227 -13.4918 13.7227 -11.3064C13.7227 -9.12109 15.5 -8.56553 15.4978 -6.41753V-6.3882C15.5 -4.2402 13.7227 -3.68464 13.7227 -1.49931C13.7227 0.686023 15.5 1.24158 15.4978 3.38958C15.4955 5.53758 13.7227 6.13047 13.7227 8.27847" stroke="#46464F" stroke-opacity="0.38" stroke-linejoin="round"/>
<path d="M13.6306 -6.9214C13.6328 -4.7734 11.8555 -4.21785 11.8555 -2.03251C11.8555 0.15282 13.6328 0.708375 13.6306 2.85638C13.6284 5.00437 11.8555 5.59726 11.8555 7.74526M13.6306 -16.7285C13.6328 -14.5805 11.8555 -14.025 11.8555 -11.8396C11.8555 -9.65429 13.6328 -9.09874 13.6306 -6.95074V-6.9214C13.6328 -4.7734 11.8555 -4.21785 11.8555 -2.03251C11.8555 0.15282 13.6328 0.708375 13.6306 2.85638C13.6284 5.00437 11.8555 5.59726 11.8555 7.74526" stroke="#46464F" stroke-opacity="0.38" stroke-linejoin="round"/>
<circle cx="7.11079" cy="5.33442" r="1.27778" stroke="#46464F" stroke-opacity="0.38"/>
</g>
<defs>
<clipPath id="clip0_712_13747">
<rect width="20" height="20" fill="white"/>
</clipPath>
</defs>
</svg>
