<svg width="12" height="14" viewBox="0 0 12 14" fill="none" xmlns="http://www.w3.org/2000/svg">
<path d="M7.34733 2.88911V2.00022C7.34733 1.50911 6.94955 1.11133 6.45844 1.11133H1.56955C1.07844 1.11133 0.680664 1.50911 0.680664 2.00022V14.0002" stroke="black"/>
<path d="M10.014 2.88867H4.68066V4.66645H10.014V2.88867Z" stroke="black" stroke-linejoin="round"/>
<path d="M3.34717 4.66602H11.3472" stroke="black" stroke-linejoin="round"/>
<path d="M7.34733 6C7.102 6 6.90289 6.19911 6.90289 6.44444C6.90289 6.68978 7.102 6.88889 7.34733 6.88889C7.59266 6.88889 7.79178 6.68978 7.79178 6.44444C7.79178 6.19911 7.59266 6 7.34733 6ZM5.12511 6C4.87978 6 4.68066 6.19911 4.68066 6.44444C4.68066 6.68978 4.87978 6.88889 5.12511 6.88889C5.37044 6.88889 5.56955 6.68978 5.56955 6.44444C5.56955 6.19911 5.37044 6 5.12511 6ZM9.56955 6C9.32422 6 9.12511 6.19911 9.12511 6.44444C9.12511 6.68978 9.32422 6.88889 9.56955 6.88889C9.81489 6.88889 10.014 6.68978 10.014 6.44444C10.014 6.19911 9.81489 6 9.56955 6ZM7.34733 7.77778C7.102 7.77778 6.90289 7.97689 6.90289 8.22222C6.90289 8.46756 7.102 8.66667 7.34733 8.66667C7.59266 8.66667 7.79178 8.46756 7.79178 8.22222C7.79178 7.97689 7.59266 7.77778 7.34733 7.77778ZM9.56955 7.77778C9.32422 7.77778 9.12511 7.97689 9.12511 8.22222C9.12511 8.46756 9.32422 8.66667 9.56955 8.66667C9.81489 8.66667 10.014 8.46756 10.014 8.22222C10.014 7.97689 9.81489 7.77778 9.56955 7.77778ZM5.12511 7.77778C4.87978 7.77778 4.68066 7.97689 4.68066 8.22222C4.68066 8.46756 4.87978 8.66667 5.12511 8.66667C5.37044 8.66667 5.56955 8.46756 5.56955 8.22222C5.56955 7.97689 5.37044 7.77778 5.12511 7.77778ZM7.34733 9.55556C7.102 9.55556 6.90289 9.75467 6.90289 10C6.90289 10.2453 7.102 10.4444 7.34733 10.4444C7.59266 10.4444 7.79178 10.2453 7.79178 10C7.79178 9.75467 7.59266 9.55556 7.34733 9.55556ZM9.56955 9.55556C9.32422 9.55556 9.12511 9.75467 9.12511 10C9.12511 10.2453 9.32422 10.4444 9.56955 10.4444C9.81489 10.4444 10.014 10.2453 10.014 10C10.014 9.75467 9.81489 9.55556 9.56955 9.55556ZM5.12511 9.55556C4.87978 9.55556 4.68066 9.75467 4.68066 10C4.68066 10.2453 4.87978 10.4444 5.12511 10.4444C5.37044 10.4444 5.56955 10.2453 5.56955 10C5.56955 9.75467 5.37044 9.55556 5.12511 9.55556ZM7.34733 11.3333C7.102 11.3333 6.90289 11.5324 6.90289 11.7778C6.90289 12.0231 7.102 12.2222 7.34733 12.2222C7.59266 12.2222 7.79178 12.0231 7.79178 11.7778C7.79178 11.5324 7.59266 11.3333 7.34733 11.3333ZM9.56955 11.3333C9.32422 11.3333 9.12511 11.5324 9.12511 11.7778C9.12511 12.0231 9.32422 12.2222 9.56955 12.2222C9.81489 12.2222 10.014 12.0231 10.014 11.7778C10.014 11.5324 9.81489 11.3333 9.56955 11.3333ZM5.12511 11.3333C4.87978 11.3333 4.68066 11.5324 4.68066 11.7778C4.68066 12.0231 4.87978 12.2222 5.12511 12.2222C5.37044 12.2222 5.56955 12.0231 5.56955 11.7778C5.56955 11.5324 5.37044 11.3333 5.12511 11.3333ZM7.34733 13.1111C7.102 13.1111 6.90289 13.3102 6.90289 13.5556C6.90289 13.8009 7.102 14 7.34733 14C7.59266 14 7.79178 13.8009 7.79178 13.5556C7.79178 13.3102 7.59266 13.1111 7.34733 13.1111ZM9.56955 13.1111C9.32422 13.1111 9.12511 13.3102 9.12511 13.5556C9.12511 13.8009 9.32422 14 9.56955 14C9.81489 14 10.014 13.8009 10.014 13.5556C10.014 13.3102 9.81489 13.1111 9.56955 13.1111ZM5.12511 13.1111C4.87978 13.1111 4.68066 13.3102 4.68066 13.5556C4.68066 13.8009 4.87978 14 5.12511 14C5.37044 14 5.56955 13.8009 5.56955 13.5556C5.56955 13.3102 5.37044 13.1111 5.12511 13.1111Z" fill="black"/>
<path d="M9.5695 6C9.32417 6 9.12505 6.19911 9.12505 6.44444C9.12505 6.68978 9.32417 6.88889 9.5695 6.88889C9.81483 6.88889 10.0139 6.68978 10.0139 6.44444C10.0139 6.19911 9.81483 6 9.5695 6ZM7.34728 6C7.10194 6 6.90283 6.19911 6.90283 6.44444C6.90283 6.68978 7.10194 6.88889 7.34728 6.88889C7.59261 6.88889 7.79172 6.68978 7.79172 6.44444C7.79172 6.19911 7.59261 6 7.34728 6ZM9.5695 7.77778C9.32417 7.77778 9.12505 7.97689 9.12505 8.22222C9.12505 8.46756 9.32417 8.66667 9.5695 8.66667C9.81483 8.66667 10.0139 8.46756 10.0139 8.22222C10.0139 7.97689 9.81483 7.77778 9.5695 7.77778ZM7.34728 7.77778C7.10194 7.77778 6.90283 7.97689 6.90283 8.22222C6.90283 8.46756 7.10194 8.66667 7.34728 8.66667C7.59261 8.66667 7.79172 8.46756 7.79172 8.22222C7.79172 7.97689 7.59261 7.77778 7.34728 7.77778ZM9.5695 9.55556C9.32417 9.55556 9.12505 9.75467 9.12505 10C9.12505 10.2453 9.32417 10.4444 9.5695 10.4444C9.81483 10.4444 10.0139 10.2453 10.0139 10C10.0139 9.75467 9.81483 9.55556 9.5695 9.55556ZM7.34728 9.55556C7.10194 9.55556 6.90283 9.75467 6.90283 10C6.90283 10.2453 7.10194 10.4444 7.34728 10.4444C7.59261 10.4444 7.79172 10.2453 7.79172 10C7.79172 9.75467 7.59261 9.55556 7.34728 9.55556ZM9.5695 11.3333C9.32417 11.3333 9.12505 11.5324 9.12505 11.7778C9.12505 12.0231 9.32417 12.2222 9.5695 12.2222C9.81483 12.2222 10.0139 12.0231 10.0139 11.7778C10.0139 11.5324 9.81483 11.3333 9.5695 11.3333ZM7.34728 11.3333C7.10194 11.3333 6.90283 11.5324 6.90283 11.7778C6.90283 12.0231 7.10194 12.2222 7.34728 12.2222C7.59261 12.2222 7.79172 12.0231 7.79172 11.7778C7.79172 11.5324 7.59261 11.3333 7.34728 11.3333ZM9.5695 13.1111C9.32417 13.1111 9.12505 13.3102 9.12505 13.5556C9.12505 13.8009 9.32417 14 9.5695 14C9.81483 14 10.0139 13.8009 10.0139 13.5556C10.0139 13.3102 9.81483 13.1111 9.5695 13.1111ZM7.34728 13.1111C7.10194 13.1111 6.90283 13.3102 6.90283 13.5556C6.90283 13.8009 7.10194 14 7.34728 14C7.59261 14 7.79172 13.8009 7.79172 13.5556C7.79172 13.3102 7.59261 13.1111 7.34728 13.1111Z" fill="black"/>
</svg>
