<svg width="20" height="20" viewBox="0 0 20 20" fill="none" xmlns="http://www.w3.org/2000/svg">
<path d="M12.3473 4.88911V4.00022C12.3473 3.50911 11.9496 3.11133 11.4584 3.11133H6.56955C6.07844 3.11133 5.68066 3.50911 5.68066 4.00022V16.0002" stroke="black"/>
<path d="M15.014 4.88867H9.68066V6.66645H15.014V4.88867Z" stroke="black" stroke-linejoin="round"/>
<path d="M8.34766 6.66602H16.3477" stroke="black" stroke-linejoin="round"/>
<path d="M12.3473 8C12.102 8 11.9029 8.19911 11.9029 8.44444C11.9029 8.68978 12.102 8.88889 12.3473 8.88889C12.5927 8.88889 12.7918 8.68978 12.7918 8.44444C12.7918 8.19911 12.5927 8 12.3473 8ZM10.1251 8C9.87978 8 9.68066 8.19911 9.68066 8.44444C9.68066 8.68978 9.87978 8.88889 10.1251 8.88889C10.3704 8.88889 10.5696 8.68978 10.5696 8.44444C10.5696 8.19911 10.3704 8 10.1251 8ZM14.5696 8C14.3242 8 14.1251 8.19911 14.1251 8.44444C14.1251 8.68978 14.3242 8.88889 14.5696 8.88889C14.8149 8.88889 15.014 8.68978 15.014 8.44444C15.014 8.19911 14.8149 8 14.5696 8ZM12.3473 9.77778C12.102 9.77778 11.9029 9.97689 11.9029 10.2222C11.9029 10.4676 12.102 10.6667 12.3473 10.6667C12.5927 10.6667 12.7918 10.4676 12.7918 10.2222C12.7918 9.97689 12.5927 9.77778 12.3473 9.77778ZM14.5696 9.77778C14.3242 9.77778 14.1251 9.97689 14.1251 10.2222C14.1251 10.4676 14.3242 10.6667 14.5696 10.6667C14.8149 10.6667 15.014 10.4676 15.014 10.2222C15.014 9.97689 14.8149 9.77778 14.5696 9.77778ZM10.1251 9.77778C9.87978 9.77778 9.68066 9.97689 9.68066 10.2222C9.68066 10.4676 9.87978 10.6667 10.1251 10.6667C10.3704 10.6667 10.5696 10.4676 10.5696 10.2222C10.5696 9.97689 10.3704 9.77778 10.1251 9.77778ZM12.3473 11.5556C12.102 11.5556 11.9029 11.7547 11.9029 12C11.9029 12.2453 12.102 12.4444 12.3473 12.4444C12.5927 12.4444 12.7918 12.2453 12.7918 12C12.7918 11.7547 12.5927 11.5556 12.3473 11.5556ZM14.5696 11.5556C14.3242 11.5556 14.1251 11.7547 14.1251 12C14.1251 12.2453 14.3242 12.4444 14.5696 12.4444C14.8149 12.4444 15.014 12.2453 15.014 12C15.014 11.7547 14.8149 11.5556 14.5696 11.5556ZM10.1251 11.5556C9.87978 11.5556 9.68066 11.7547 9.68066 12C9.68066 12.2453 9.87978 12.4444 10.1251 12.4444C10.3704 12.4444 10.5696 12.2453 10.5696 12C10.5696 11.7547 10.3704 11.5556 10.1251 11.5556ZM12.3473 13.3333C12.102 13.3333 11.9029 13.5324 11.9029 13.7778C11.9029 14.0231 12.102 14.2222 12.3473 14.2222C12.5927 14.2222 12.7918 14.0231 12.7918 13.7778C12.7918 13.5324 12.5927 13.3333 12.3473 13.3333ZM14.5696 13.3333C14.3242 13.3333 14.1251 13.5324 14.1251 13.7778C14.1251 14.0231 14.3242 14.2222 14.5696 14.2222C14.8149 14.2222 15.014 14.0231 15.014 13.7778C15.014 13.5324 14.8149 13.3333 14.5696 13.3333ZM10.1251 13.3333C9.87978 13.3333 9.68066 13.5324 9.68066 13.7778C9.68066 14.0231 9.87978 14.2222 10.1251 14.2222C10.3704 14.2222 10.5696 14.0231 10.5696 13.7778C10.5696 13.5324 10.3704 13.3333 10.1251 13.3333ZM12.3473 15.1111C12.102 15.1111 11.9029 15.3102 11.9029 15.5556C11.9029 15.8009 12.102 16 12.3473 16C12.5927 16 12.7918 15.8009 12.7918 15.5556C12.7918 15.3102 12.5927 15.1111 12.3473 15.1111ZM14.5696 15.1111C14.3242 15.1111 14.1251 15.3102 14.1251 15.5556C14.1251 15.8009 14.3242 16 14.5696 16C14.8149 16 15.014 15.8009 15.014 15.5556C15.014 15.3102 14.8149 15.1111 14.5696 15.1111ZM10.1251 15.1111C9.87978 15.1111 9.68066 15.3102 9.68066 15.5556C9.68066 15.8009 9.87978 16 10.1251 16C10.3704 16 10.5696 15.8009 10.5696 15.5556C10.5696 15.3102 10.3704 15.1111 10.1251 15.1111Z" fill="black"/>
<path d="M14.57 8C14.3247 8 14.1255 8.19911 14.1255 8.44444C14.1255 8.68978 14.3247 8.88889 14.57 8.88889C14.8153 8.88889 15.0144 8.68978 15.0144 8.44444C15.0144 8.19911 14.8153 8 14.57 8ZM12.3478 8C12.1024 8 11.9033 8.19911 11.9033 8.44444C11.9033 8.68978 12.1024 8.88889 12.3478 8.88889C12.5931 8.88889 12.7922 8.68978 12.7922 8.44444C12.7922 8.19911 12.5931 8 12.3478 8ZM14.57 9.77778C14.3247 9.77778 14.1255 9.97689 14.1255 10.2222C14.1255 10.4676 14.3247 10.6667 14.57 10.6667C14.8153 10.6667 15.0144 10.4676 15.0144 10.2222C15.0144 9.97689 14.8153 9.77778 14.57 9.77778ZM12.3478 9.77778C12.1024 9.77778 11.9033 9.97689 11.9033 10.2222C11.9033 10.4676 12.1024 10.6667 12.3478 10.6667C12.5931 10.6667 12.7922 10.4676 12.7922 10.2222C12.7922 9.97689 12.5931 9.77778 12.3478 9.77778ZM14.57 11.5556C14.3247 11.5556 14.1255 11.7547 14.1255 12C14.1255 12.2453 14.3247 12.4444 14.57 12.4444C14.8153 12.4444 15.0144 12.2453 15.0144 12C15.0144 11.7547 14.8153 11.5556 14.57 11.5556ZM12.3478 11.5556C12.1024 11.5556 11.9033 11.7547 11.9033 12C11.9033 12.2453 12.1024 12.4444 12.3478 12.4444C12.5931 12.4444 12.7922 12.2453 12.7922 12C12.7922 11.7547 12.5931 11.5556 12.3478 11.5556ZM14.57 13.3333C14.3247 13.3333 14.1255 13.5324 14.1255 13.7778C14.1255 14.0231 14.3247 14.2222 14.57 14.2222C14.8153 14.2222 15.0144 14.0231 15.0144 13.7778C15.0144 13.5324 14.8153 13.3333 14.57 13.3333ZM12.3478 13.3333C12.1024 13.3333 11.9033 13.5324 11.9033 13.7778C11.9033 14.0231 12.1024 14.2222 12.3478 14.2222C12.5931 14.2222 12.7922 14.0231 12.7922 13.7778C12.7922 13.5324 12.5931 13.3333 12.3478 13.3333ZM14.57 15.1111C14.3247 15.1111 14.1255 15.3102 14.1255 15.5556C14.1255 15.8009 14.3247 16 14.57 16C14.8153 16 15.0144 15.8009 15.0144 15.5556C15.0144 15.3102 14.8153 15.1111 14.57 15.1111ZM12.3478 15.1111C12.1024 15.1111 11.9033 15.3102 11.9033 15.5556C11.9033 15.8009 12.1024 16 12.3478 16C12.5931 16 12.7922 15.8009 12.7922 15.5556C12.7922 15.3102 12.5931 15.1111 12.3478 15.1111Z" fill="black"/>
</svg>
