<svg width="20" height="20" viewBox="0 0 20 20" fill="none" xmlns="http://www.w3.org/2000/svg">
<path d="M8.82769 14.0094H11.4637V14.8881H8.82769V14.0094ZM7.07036 14.8881V15.7668H13.221V14.8881H12.3424V14.0094L12.818 14.0077L12.9135 14.0053C14.0827 13.9555 14.0189 13.4746 12.8373 13.4746L7.324 13.4787C6.15479 13.5285 6.21805 14.0094 7.39957 14.0094H7.94903V14.8881H7.07036Z" fill="#46464F" fill-opacity="0.38"/>
<path d="M5.75233 5.22242H14.539L14.6163 5.22476C15.3081 5.26459 15.857 5.83865 15.857 6.54042V11.8124L15.8547 11.8897C15.8148 12.5815 15.2408 13.1304 14.539 13.1304H5.75233L5.67501 13.1281C4.9832 13.0882 4.43433 12.5142 4.43433 11.8124V6.54042L4.43667 6.46309C4.47651 5.77129 5.05057 5.22242 5.75233 5.22242ZM12.3423 14.0091H14.539L14.6345 14.0073C15.8037 13.9575 16.7357 12.9939 16.7357 11.8124V6.54042L16.7339 6.44493C16.6841 5.27572 15.7205 4.34375 14.539 4.34375H5.75233L5.65685 4.34551C4.48764 4.3953 3.55566 5.3589 3.55566 6.54042V11.8124L3.55742 11.9079C3.60721 13.0771 4.57082 14.0091 5.75233 14.0091H7.949H12.3423Z" fill="#46464F" fill-opacity="0.38"/>
</svg>
