<svg width="14" height="12" viewBox="0 0 14 12" fill="none" xmlns="http://www.w3.org/2000/svg">
<path d="M5.82769 10.0094H8.46369V10.8881H5.82769V10.0094ZM4.07036 10.8881V11.7668H10.221V10.8881H9.34236V10.0094L9.81801 10.0077L9.91349 10.0053C11.0827 9.95553 11.0189 9.47461 9.83734 9.47461L4.324 9.47871C3.15479 9.5285 3.21805 10.0094 4.39957 10.0094H4.94903V10.8881H4.07036Z" fill="#46464F" fill-opacity="0.38"/>
<path d="M2.75233 1.22242H11.539L11.6163 1.22476C12.3081 1.26459 12.857 1.83865 12.857 2.54042V7.81242L12.8547 7.88974C12.8148 8.58154 12.2408 9.13042 11.539 9.13042H2.75233L2.67501 9.12807C1.9832 9.08824 1.43433 8.51418 1.43433 7.81242V2.54042L1.43667 2.46309C1.47651 1.77129 2.05057 1.22242 2.75233 1.22242ZM9.34233 10.0091H11.539L11.6345 10.0073C12.8037 9.95753 13.7357 8.99393 13.7357 7.81242V2.54042L13.7339 2.44493C13.6841 1.27572 12.7205 0.34375 11.539 0.34375H2.75233L2.65685 0.345507C1.48764 0.395299 0.555664 1.3589 0.555664 2.54042V7.81242L0.557422 7.9079C0.607213 9.07711 1.57082 10.0091 2.75233 10.0091H4.949H9.34233Z" fill="#46464F" fill-opacity="0.38"/>
</svg>
