<svg width="14" height="11" viewBox="0 0 14 11" fill="none" xmlns="http://www.w3.org/2000/svg">
<path d="M6.21492 8.45871C6.21492 8.02511 6.56661 7.67342 7.00021 7.67342C7.43382 7.67342 7.7855 8.02511 7.7855 8.45871C7.7855 8.89231 7.43382 9.24345 7.00021 9.24345C6.56661 9.24345 6.21492 8.89231 6.21492 8.45871ZM8.57025 8.45871C8.57025 7.5915 7.86742 6.88867 7.00021 6.88867C6.13301 6.88867 5.43018 7.5915 5.43018 8.45871C5.43018 9.32592 6.13301 10.0287 7.00021 10.0287C7.86742 10.0287 8.57025 9.32592 8.57025 8.45871Z" fill="black" stroke="black" stroke-width="0.2"/>
<path d="M10.1568 6.87154C9.57573 5.71708 8.38032 4.92578 6.99978 4.92578C5.61924 4.92578 4.42382 5.71763 3.84277 6.87154L4.43693 7.46569C4.83504 6.43902 5.83222 5.71053 6.99978 5.71053C8.16734 5.71053 9.16452 6.43902 9.56262 7.46569L10.1568 6.87154Z" fill="black" stroke="black" stroke-width="0.2"/>
<path d="M11.5908 5.43727C10.6078 3.94642 8.91875 2.96289 6.99975 2.96289C5.08076 2.96289 3.39167 3.94696 2.40869 5.43727L2.97773 6.00576C3.80507 4.65198 5.29701 3.74818 6.99975 3.74818C8.70304 3.74818 10.195 4.65198 11.0223 6.00631L11.5908 5.43727Z" fill="black" stroke="black" stroke-width="0.2"/>
<path d="M13 4.02812C11.6418 2.19159 9.45963 1 7 1C4.54037 1 2.35815 2.19159 1 4.02812L1.56248 4.58952C2.77209 2.89224 4.75662 1.78529 7 1.78529C9.24338 1.78529 11.2285 2.89224 12.4381 4.59006L13 4.02812Z" fill="black" stroke="black" stroke-width="0.2"/>
</svg>
