<svg width="14" height="11" viewBox="0 0 14 11" fill="none" xmlns="http://www.w3.org/2000/svg">
<path d="M6.21541 8.45871C6.21541 8.02511 6.5671 7.67342 7.0007 7.67342C7.4343 7.67342 7.78599 8.02511 7.78599 8.45871C7.78599 8.89231 7.4343 9.24345 7.0007 9.24345C6.5671 9.24345 6.21541 8.89231 6.21541 8.45871ZM8.57074 8.45871C8.57074 7.5915 7.86791 6.88867 7.0007 6.88867C6.13349 6.88867 5.43066 7.5915 5.43066 8.45871C5.43066 9.32592 6.13349 10.0287 7.0007 10.0287C7.86791 10.0287 8.57074 9.32592 8.57074 8.45871Z" fill="black" stroke="black" stroke-width="0.2"/>
<path d="M10.1568 6.87154C9.57573 5.71708 8.38032 4.92578 6.99978 4.92578C5.61924 4.92578 4.42382 5.71763 3.84277 6.87154L4.43693 7.46569C4.83504 6.43902 5.83222 5.71053 6.99978 5.71053C8.16734 5.71053 9.16452 6.43902 9.56262 7.46569L10.1568 6.87154Z" fill="black" stroke="black" stroke-width="0.2"/>
<path d="M11.5903 5.43727C10.6073 3.94642 8.91826 2.96289 6.99926 2.96289C5.08027 2.96289 3.39118 3.94696 2.4082 5.43727L2.97724 6.00576C3.80458 4.65198 5.29653 3.74818 6.99926 3.74818C8.70255 3.74818 10.1945 4.65198 11.0218 6.00631L11.5903 5.43727Z" fill="black" stroke="black" stroke-width="0.2"/>
<path d="M13 4.02812C11.6418 2.19159 9.45963 1 7 1C4.54037 1 2.35815 2.19159 1 4.02812L1.56248 4.58951C2.77209 2.89224 4.75662 1.78529 7 1.78529C9.24338 1.78529 11.2285 2.89224 12.4381 4.59006L13 4.02812Z" fill="black" stroke="black" stroke-width="0.2"/>
</svg>
