<svg width="16" height="14" viewBox="0 0 16 14" fill="none" xmlns="http://www.w3.org/2000/svg">
<path d="M13.0664 10.8008H15.1997V12.4008C15.1997 12.6952 14.9608 12.9341 14.6664 12.9341H13.5997C13.3053 12.9341 13.0664 12.6952 13.0664 12.4008V10.8008Z" stroke="black"/>
<path d="M1.33301 10.8008H3.46634V12.4008C3.46634 12.6952 3.22741 12.9341 2.93301 12.9341H1.86634C1.57194 12.9341 1.33301 12.6952 1.33301 12.4008V10.8008Z" stroke="black"/>
<path d="M3.46634 5.46875H13.0663C14.2445 5.46875 15.1997 6.42395 15.1997 7.60208V10.2688C15.1997 10.5632 14.9607 10.8021 14.6663 10.8021H1.86634C1.57194 10.8021 1.33301 10.5632 1.33301 10.2688V7.60208C1.33301 6.42395 2.28821 5.46875 3.46634 5.46875Z" stroke="black"/>
<path d="M13.0665 7.60156C13.3609 7.60156 13.5999 7.8405 13.5999 8.1349C13.5999 8.4293 13.3609 8.66823 13.0665 8.66823C12.7721 8.66823 12.5332 8.4293 12.5332 8.1349C12.5332 7.8405 12.7721 7.60156 13.0665 7.60156Z" fill="black"/>
<path d="M3.46644 7.60156C3.76084 7.60156 3.99977 7.8405 3.99977 8.1349C3.99977 8.4293 3.76084 8.66823 3.46644 8.66823C3.17204 8.66823 2.93311 8.4293 2.93311 8.1349C2.93311 7.8405 3.17204 7.60156 3.46644 7.60156Z" fill="black"/>
<path d="M4.3695 1.20117H12.1636C12.386 1.20117 12.585 1.33931 12.6628 1.54731L14.1332 5.46784H2.3999L3.8703 1.54731C3.94817 1.33931 4.1471 1.20117 4.3695 1.20117Z" stroke="black"/>
<path d="M0.799805 3.86719H2.3998V4.93385H0.799805V3.86719Z" fill="black"/>
<path d="M14.1333 3.86719H15.7333V4.93385H14.1333V3.86719Z" fill="black"/>
<path d="M5.06641 8.13477H11.4664" stroke="black"/>
</svg>
