<svg width="16" height="14" viewBox="0 0 16 14" fill="none" xmlns="http://www.w3.org/2000/svg">
<path d="M13.0664 10.8008H15.1997V12.4008C15.1997 12.6952 14.9608 12.9341 14.6664 12.9341H13.5997C13.3053 12.9341 13.0664 12.6952 13.0664 12.4008V10.8008Z" stroke="black"/>
<path d="M1.33301 10.8008H3.46634V12.4008C3.46634 12.6952 3.22741 12.9341 2.93301 12.9341H1.86634C1.57194 12.9341 1.33301 12.6952 1.33301 12.4008V10.8008Z" stroke="black"/>
<path d="M3.46634 5.46875H13.0663C14.2445 5.46875 15.1997 6.42395 15.1997 7.60208V10.2688C15.1997 10.5632 14.9607 10.8021 14.6663 10.8021H1.86634C1.57194 10.8021 1.33301 10.5632 1.33301 10.2688V7.60208C1.33301 6.42395 2.28821 5.46875 3.46634 5.46875Z" stroke="black"/>
<path d="M13.0665 7.60156C13.3609 7.60156 13.5999 7.8405 13.5999 8.1349C13.5999 8.4293 13.3609 8.66823 13.0665 8.66823C12.7721 8.66823 12.5332 8.4293 12.5332 8.1349C12.5332 7.8405 12.7721 7.60156 13.0665 7.60156Z" fill="black"/>
<path d="M3.46693 7.60156C3.76133 7.60156 4.00026 7.8405 4.00026 8.1349C4.00026 8.4293 3.76133 8.66823 3.46693 8.66823C3.17253 8.66823 2.93359 8.4293 2.93359 8.1349C2.93359 7.8405 3.17253 7.60156 3.46693 7.60156Z" fill="black"/>
<path d="M4.36901 1.20117H12.1631C12.3855 1.20117 12.5845 1.33931 12.6623 1.54731L14.1327 5.46784H2.39941L3.86981 1.54731C3.94768 1.33931 4.14661 1.20117 4.36901 1.20117Z" stroke="black"/>
<path d="M0.799805 3.86719H2.3998V4.93385H0.799805V3.86719Z" fill="black"/>
<path d="M14.1328 3.86719H15.7328V4.93385H14.1328V3.86719Z" fill="black"/>
<path d="M5.06641 8.13477H11.4664" stroke="black"/>
</svg>
