<svg width="20" height="20" viewBox="0 0 20 20" fill="none" xmlns="http://www.w3.org/2000/svg">
<path d="M17.5665 7.14938V12.8493C17.5665 13.7827 17.0665 14.6494 16.2581 15.1244L11.3081 17.9827C10.4998 18.4494 9.4998 18.4494 8.68314 17.9827L3.73314 15.1244C2.9248 14.6577 2.4248 13.791 2.4248 12.8493V7.14938C2.4248 6.21604 2.9248 5.34934 3.73314 4.87434L8.68314 2.01602C9.49147 1.54935 10.4915 1.54935 11.3081 2.01602L16.2581 4.87434C17.0665 5.34934 17.5665 6.20771 17.5665 7.14938Z" stroke="#3A3A3A" stroke-linecap="round" stroke-linejoin="round"/>
<path d="M10.0003 9.16651C11.0726 9.16651 11.9419 8.29719 11.9419 7.22483C11.9419 6.15248 11.0726 5.2832 10.0003 5.2832C8.92791 5.2832 8.05859 6.15248 8.05859 7.22483C8.05859 8.29719 8.92791 9.16651 10.0003 9.16651Z" stroke="#3A3A3A" stroke-linecap="round" stroke-linejoin="round"/>
<path d="M13.3337 13.8826C13.3337 12.3826 11.842 11.166 10.0003 11.166C8.15866 11.166 6.66699 12.3826 6.66699 13.8826" stroke="#3A3A3A" stroke-linecap="round" stroke-linejoin="round"/>
</svg>
