<svg width="20" height="20" viewBox="0 0 20 20" fill="none" xmlns="http://www.w3.org/2000/svg">
<path d="M17.567 7.14938V12.8493C17.567 13.7827 17.067 14.6494 16.2586 15.1244L11.3086 17.9827C10.5003 18.4494 9.50029 18.4494 8.68363 17.9827L3.73363 15.1244C2.92529 14.6577 2.42529 13.791 2.42529 12.8493V7.14938C2.42529 6.21604 2.92529 5.34934 3.73363 4.87434L8.68363 2.01602C9.49196 1.54935 10.492 1.54935 11.3086 2.01602L16.2586 4.87434C17.067 5.34934 17.567 6.20771 17.567 7.14938Z" stroke="#3A3A3A" stroke-linecap="round" stroke-linejoin="round"/>
<path d="M9.99977 9.16651C11.0721 9.16651 11.9414 8.29719 11.9414 7.22483C11.9414 6.15248 11.0721 5.2832 9.99977 5.2832C8.92742 5.2832 8.05811 6.15248 8.05811 7.22483C8.05811 8.29719 8.92742 9.16651 9.99977 9.16651Z" stroke="#3A3A3A" stroke-linecap="round" stroke-linejoin="round"/>
<path d="M13.3332 13.8826C13.3332 12.3826 11.8415 11.166 9.99984 11.166C8.15817 11.166 6.6665 12.3826 6.6665 13.8826" stroke="#3A3A3A" stroke-linecap="round" stroke-linejoin="round"/>
</svg>
