<svg width="14" height="15" viewBox="0 0 14 15" fill="none" xmlns="http://www.w3.org/2000/svg">
<path d="M1.1704 1.36914H12.8303C13.0985 1.36914 13.3161 1.58679 13.3161 1.85497V13.5149C13.3161 13.7831 13.0985 14.0007 12.8303 14.0007H1.1704C0.902222 14.0007 0.68457 13.7831 0.68457 13.5149V1.85497C0.68457 1.58679 0.902222 1.36914 1.1704 1.36914Z" stroke="black"/>
<path d="M13.3161 5.25586H0.68457" stroke="black"/>
<path d="M11.3725 2.82617C11.6407 2.82617 11.8584 3.04382 11.8584 3.312C11.8584 3.58018 11.6407 3.79783 11.3725 3.79783C11.1044 3.79783 10.8867 3.58018 10.8867 3.312C10.8867 3.04382 11.1044 2.82617 11.3725 2.82617Z" fill="black"/>
<path d="M8.45751 2.82617C8.72569 2.82617 8.94334 3.04382 8.94334 3.312C8.94334 3.58018 8.72569 3.79783 8.45751 3.79783C8.18933 3.79783 7.97168 3.58018 7.97168 3.312C7.97168 3.04382 8.18933 2.82617 8.45751 2.82617Z" fill="black"/>
<path d="M5.54247 2.82617C5.81065 2.82617 6.0283 3.04382 6.0283 3.312C6.0283 3.58018 5.81065 3.79783 5.54247 3.79783C5.27429 3.79783 5.05664 3.58018 5.05664 3.312C5.05664 3.04382 5.27429 2.82617 5.54247 2.82617Z" fill="black"/>
<path d="M2.62743 2.82617C2.89561 2.82617 3.11326 3.04382 3.11326 3.312C3.11326 3.58018 2.89561 3.79783 2.62743 3.79783C2.35925 3.79783 2.1416 3.58018 2.1416 3.312C2.1416 3.04382 2.35925 2.82617 2.62743 2.82617Z" fill="black"/>
<path d="M2.62793 7.19922H11.3729V12.0575H2.62793V7.19922Z" stroke="black"/>
<path d="M13.3161 5.25586H0.68457" stroke="black"/>
</svg>
