<svg width="20" height="20" viewBox="0 0 20 20" fill="none" xmlns="http://www.w3.org/2000/svg">
<g clip-path="url(#clip0_712_13793)">
<path d="M24.8065 26.6101C24.8065 25.3994 24.8065 24.1834 24.8065 22.9341C24.8065 21.6847 24.8065 20.4012 24.8065 19.0545C24.8065 17.6789 24.9896 15.9621 25.0812 14.4474C25.1727 12.9327 25.1723 11.6207 24.8065 11.0545C24.7772 11.0096 24.4781 11.0096 24.1687 11.0207C23.8598 11.0318 23.5407 11.0545 23.4732 11.0545C21.6465 11.0545 21.3403 10.2972 20.3621 9.72116C19.326 9.11094 18.962 8.81183 17.6954 8.83227C15.0816 8.8745 14.0354 11.0994 11.9176 11.0545C9.76516 11.0092 8.0625 8.32427 6.13983 8.38783C4.39672 8.44561 2.75094 11.0443 0.806495 11.0545C-1.49662 11.0669 -2.64328 8.37939 -4.52684 9.27672C-3.75928 15.2252 -5.63928 20.7047 -4.52684 23.4989C-4.29573 24.0794 -3.10062 24.7461 -2.30462 25.2767C-1.18195 26.0256 -0.354838 26.6136 0.806495 26.6101C2.85583 26.6038 4.16516 23.9176 6.58427 23.9434C8.30783 23.9616 10.3714 26.6581 12.3621 26.6101C14.7452 26.5523 15.5412 23.8612 18.1398 23.9434C20.6576 24.0234 21.5714 27.4954 24.8065 26.6101Z" stroke="black"/>
<path d="M4.80675 4.38867H15.4734C15.7187 4.38867 15.9179 4.58778 15.9179 4.83312V15.4998C15.9179 15.7451 15.7187 15.9442 15.4734 15.9442H4.80675C4.56142 15.9442 4.3623 15.7451 4.3623 15.4998V4.83312C4.3623 4.58778 4.56142 4.38867 4.80675 4.38867Z" stroke="black"/>
<path d="M10.1405 6.61133C12.1041 6.61133 13.6961 8.20333 13.6961 10.1669C13.6961 12.1304 12.1041 13.7224 10.1405 13.7224C8.17696 13.7224 6.58496 12.1304 6.58496 10.1669C6.58496 8.20333 8.17696 6.61133 10.1405 6.61133Z" stroke="black"/>
<path d="M6.13976 5.72266C6.38509 5.72266 6.5842 5.92177 6.5842 6.1671C6.5842 6.41243 6.38509 6.61155 6.13976 6.61155C5.89442 6.61155 5.69531 6.41243 5.69531 6.1671C5.69531 5.92177 5.89442 5.72266 6.13976 5.72266Z" fill="black"/>
</g>
<defs>
<clipPath id="clip0_712_13793">
<rect width="20" height="20" fill="white"/>
</clipPath>
</defs>
</svg>
