<svg width="12" height="15" viewBox="0 0 12 15" fill="none" xmlns="http://www.w3.org/2000/svg">
<path fill-rule="evenodd" clip-rule="evenodd" d="M1.75747 2.01515C2.88267 0.889947 4.40878 0.257813 6.00006 0.257812C7.59135 0.257813 9.11745 0.889947 10.2427 2.01515C11.3679 3.14036 12 4.66647 12 6.25775C12 7.84903 11.3679 9.37514 10.2427 10.5003L6.00006 14.7429L1.75747 10.5003C1.20029 9.94322 0.758301 9.2818 0.456753 8.55385C0.155205 7.8259 0 7.04568 0 6.25775C0 5.46981 0.155205 4.6896 0.456753 3.96165C0.758301 3.2337 1.20029 2.57228 1.75747 2.01515ZM6.00006 7.97193C6.45469 7.97193 6.8907 7.79133 7.21217 7.46986C7.53364 7.14839 7.71424 6.71238 7.71424 6.25775C7.71424 5.80312 7.53364 5.36711 7.21217 5.04564C6.8907 4.72417 6.45469 4.54357 6.00006 4.54357C5.54543 4.54357 5.10943 4.72417 4.78796 5.04564C4.46648 5.36711 4.28588 5.80312 4.28588 6.25775C4.28588 6.71238 4.46648 7.14839 4.78796 7.46986C5.10943 7.79133 5.54543 7.97193 6.00006 7.97193Z" fill="#0A008A"/>
</svg>
