<svg width="411" height="292" viewBox="0 0 411 292" fill="none" xmlns="http://www.w3.org/2000/svg">
<rect width="411" height="292" rx="16" fill="#F5F5F5"/>
<path d="M206.161 117.262C200.459 117.262 195.836 121.883 195.836 127.584C195.836 133.285 200.459 137.907 206.161 137.907C211.863 137.907 216.485 133.285 216.485 127.584C216.485 121.883 211.863 117.262 206.161 117.262Z" fill="#B9B9BC"/>
<path fill-rule="evenodd" clip-rule="evenodd" d="M198.849 100.942C201.27 100.812 203.708 100.746 206.161 100.746C208.614 100.746 211.052 100.812 213.472 100.942C216.137 101.085 218.51 102.552 219.894 104.77L222.155 108.393C222.813 109.447 223.931 110.164 225.212 110.346C226.273 110.496 227.33 110.66 228.383 110.835C232.325 111.492 235.069 114.944 235.069 118.842V142.036C235.069 146.596 231.372 150.294 226.81 150.294H185.512C180.95 150.294 177.252 146.596 177.252 142.036V118.842C177.252 114.944 179.997 111.492 183.939 110.835C184.992 110.66 186.049 110.496 187.11 110.346C188.39 110.164 189.508 109.447 190.166 108.393L192.427 104.77C193.811 102.552 196.185 101.085 198.849 100.942ZM191.706 127.584C191.706 119.603 198.178 113.133 206.161 113.133C214.144 113.133 220.615 119.603 220.615 127.584C220.615 135.566 214.144 142.036 206.161 142.036C198.178 142.036 191.706 135.566 191.706 127.584ZM224.745 123.455C225.885 123.455 226.81 122.531 226.81 121.391C226.81 120.251 225.885 119.326 224.745 119.326C223.604 119.326 222.68 120.251 222.68 121.391C222.68 122.531 223.604 123.455 224.745 123.455Z" fill="#B9B9BC"/>
<path d="M121.24 182.7H117.6V179.1H115.92V182.7H112.28V184.28H115.92V187.86H117.6V184.28H121.24V182.7ZM132.831 190.48H134.811V178.22H139.611V176.48H128.031V178.22H132.831V190.48ZM144.803 179.78C143.103 179.78 141.523 180.26 140.423 181.14L141.223 182.58C142.043 181.88 143.323 181.44 144.583 181.44C146.483 181.44 147.423 182.38 147.423 184V184.38H144.383C141.223 184.38 140.123 185.78 140.123 187.48C140.123 189.32 141.643 190.6 144.043 190.6C145.703 190.6 146.883 190.04 147.523 189.08V190.48H149.343V184.08C149.343 181.18 147.703 179.78 144.803 179.78ZM144.363 189.12C142.903 189.12 142.023 188.46 142.023 187.4C142.023 186.5 142.563 185.76 144.463 185.76H147.423V187.24C146.943 188.46 145.803 189.12 144.363 189.12ZM166.156 179.78C164.356 179.78 162.876 180.54 162.076 181.74C161.376 180.42 160.016 179.78 158.396 179.78C156.796 179.78 155.496 180.38 154.736 181.46V179.88H152.896V190.48H154.816V185.02C154.816 182.72 156.076 181.5 157.996 181.5C159.736 181.5 160.736 182.52 160.736 184.6V190.48H162.656V185.02C162.656 182.72 163.916 181.5 165.836 181.5C167.576 181.5 168.576 182.52 168.576 184.6V190.48H170.496V184.38C170.496 181.26 168.736 179.78 166.156 179.78ZM179.649 179.78C178.149 179.78 176.829 180.34 175.949 181.48V175.64H174.029V190.48H175.869V188.8C176.729 190 178.089 190.6 179.649 190.6C182.749 190.6 185.009 188.42 185.009 185.18C185.009 181.94 182.749 179.78 179.649 179.78ZM179.489 188.92C177.469 188.92 175.929 187.44 175.929 185.18C175.929 182.92 177.469 181.46 179.489 181.46C181.529 181.46 183.069 182.92 183.069 185.18C183.069 187.44 181.529 188.92 179.489 188.92ZM191.424 179.78C189.724 179.78 188.144 180.26 187.044 181.14L187.844 182.58C188.664 181.88 189.944 181.44 191.204 181.44C193.104 181.44 194.044 182.38 194.044 184V184.38H191.004C187.844 184.38 186.744 185.78 186.744 187.48C186.744 189.32 188.264 190.6 190.664 190.6C192.324 190.6 193.504 190.04 194.144 189.08V190.48H195.964V184.08C195.964 181.18 194.324 179.78 191.424 179.78ZM190.984 189.12C189.524 189.12 188.644 188.46 188.644 187.4C188.644 186.5 189.184 185.76 191.084 185.76H194.044V187.24C193.564 188.46 192.424 189.12 190.984 189.12ZM205.178 179.78C203.558 179.78 202.238 180.36 201.438 181.38V175.64H199.518V190.48H201.438V185.02C201.438 182.72 202.758 181.5 204.798 181.5C206.618 181.5 207.658 182.52 207.658 184.6V190.48H209.578V184.38C209.578 181.26 207.758 179.78 205.178 179.78ZM221.231 190.48H223.591L218.691 184.26L223.151 179.88H220.831L215.051 185.16V175.64H213.131V190.48H215.051V187.58L217.251 185.54L221.231 190.48ZM229.12 179.78C227.42 179.78 225.84 180.26 224.74 181.14L225.54 182.58C226.36 181.88 227.64 181.44 228.9 181.44C230.8 181.44 231.74 182.38 231.74 184V184.38H228.7C225.54 184.38 224.44 185.78 224.44 187.48C224.44 189.32 225.96 190.6 228.36 190.6C230.02 190.6 231.2 190.04 231.84 189.08V190.48H233.66V184.08C233.66 181.18 232.02 179.78 229.12 179.78ZM228.68 189.12C227.22 189.12 226.34 188.46 226.34 187.4C226.34 186.5 226.88 185.76 228.78 185.76H231.74V187.24C231.26 188.46 230.12 189.12 228.68 189.12ZM242.873 179.78C241.193 179.78 239.833 180.4 239.053 181.48V179.88H237.213V190.48H239.133V185.02C239.133 182.72 240.453 181.5 242.493 181.5C244.313 181.5 245.353 182.52 245.353 184.6V190.48H247.273V184.38C247.273 181.26 245.453 179.78 242.873 179.78ZM266.357 178.22V176.48H256.477V190.48H258.477V184.82H265.497V183.1H258.477V178.22H266.357ZM273.101 190.6C276.281 190.6 278.601 188.34 278.601 185.18C278.601 182.02 276.281 179.78 273.101 179.78C269.921 179.78 267.581 182.02 267.581 185.18C267.581 188.34 269.921 190.6 273.101 190.6ZM273.101 188.92C271.061 188.92 269.521 187.44 269.521 185.18C269.521 182.92 271.061 181.46 273.101 181.46C275.141 181.46 276.661 182.92 276.661 185.18C276.661 187.44 275.141 188.92 273.101 188.92ZM286.616 188.48C286.216 188.8 285.676 188.98 285.116 188.98C284.056 188.98 283.456 188.34 283.456 187.2V181.46H286.496V179.88H283.456V177.56H281.536V179.88H279.736V181.46H281.536V187.28C281.536 189.42 282.756 190.6 284.896 190.6C285.756 190.6 286.636 190.36 287.216 189.86L286.616 188.48ZM293.726 190.6C296.906 190.6 299.226 188.34 299.226 185.18C299.226 182.02 296.906 179.78 293.726 179.78C290.546 179.78 288.206 182.02 288.206 185.18C288.206 188.34 290.546 190.6 293.726 190.6ZM293.726 188.92C291.686 188.92 290.146 187.44 290.146 185.18C290.146 182.92 291.686 181.46 293.726 181.46C295.766 181.46 297.286 182.92 297.286 185.18C297.286 187.44 295.766 188.92 293.726 188.92Z" fill="#B9B9BC"/>
</svg>
