<svg width="19" height="18" viewBox="0 0 19 18" fill="none" xmlns="http://www.w3.org/2000/svg">
<path d="M9.5 5.44444V9L12.1667 11.6667M17.5 9C17.5 10.0506 17.2931 11.0909 16.891 12.0615C16.489 13.0321 15.8997 13.914 15.1569 14.6569C14.414 15.3997 13.5321 15.989 12.5615 16.391C11.5909 16.7931 10.5506 17 9.5 17C8.44943 17 7.40914 16.7931 6.43853 16.391C5.46793 15.989 4.58601 15.3997 3.84315 14.6569C3.10028 13.914 2.511 13.0321 2.10896 12.0615C1.70693 11.0909 1.5 10.0506 1.5 9C1.5 6.87827 2.34285 4.84344 3.84315 3.34315C5.34344 1.84285 7.37827 1 9.5 1C11.6217 1 13.6566 1.84285 15.1569 3.34315C16.6571 4.84344 17.5 6.87827 17.5 9Z" stroke="#EA9A3D" stroke-width="2" stroke-linecap="round" stroke-linejoin="round"/>
</svg>
