<svg width="24" height="24" viewBox="0 0 24 24" fill="none" xmlns="http://www.w3.org/2000/svg">
<path d="M9.00083 11.9999L11.0008 13.9999L15.0008 9.99985M7.83583 4.69685C8.55313 4.6396 9.23411 4.35755 9.78183 3.89085C10.4007 3.36312 11.1875 3.07324 12.0008 3.07324C12.8142 3.07324 13.6009 3.36312 14.2198 3.89085C14.7675 4.35755 15.4485 4.6396 16.1658 4.69685C16.9766 4.76135 17.7378 5.11268 18.3129 5.68777C18.888 6.26287 19.2393 7.0241 19.3038 7.83485C19.3611 8.55216 19.6431 9.23313 20.1098 9.78085C20.6376 10.3998 20.9274 11.1865 20.9274 11.9999C20.9274 12.8132 20.6376 13.5999 20.1098 14.2189C19.6431 14.7666 19.3611 15.4475 19.3038 16.1649C19.2393 16.9756 18.888 17.7368 18.3129 18.3119C17.7378 18.887 16.9766 19.2383 16.1658 19.3029C15.4485 19.3601 14.7675 19.6421 14.2198 20.1089C13.6009 20.6366 12.8142 20.9265 12.0008 20.9265C11.1875 20.9265 10.4007 20.6366 9.78183 20.1089C9.23411 19.6421 8.55313 19.3601 7.83583 19.3029C7.02508 19.2383 6.26385 18.887 5.68875 18.3119C5.11365 17.7368 4.76233 16.9756 4.69783 16.1649C4.64058 15.4475 4.35853 14.7666 3.89183 14.2189C3.3641 13.5999 3.07422 12.8132 3.07422 11.9999C3.07422 11.1865 3.3641 10.3998 3.89183 9.78085C4.35853 9.23313 4.64058 8.55216 4.69783 7.83485C4.76233 7.0241 5.11365 6.26287 5.68875 5.68777C6.26385 5.11268 7.02508 4.76135 7.83583 4.69685V4.69685Z" stroke="#008A3F" stroke-width="2" stroke-linecap="round" stroke-linejoin="round"/>
</svg>
