<svg width="13" height="15" viewBox="0 0 13 15" fill="none" xmlns="http://www.w3.org/2000/svg">
<path fill-rule="evenodd" clip-rule="evenodd" d="M2.25747 2.08888C3.38267 0.963678 4.90878 0.331543 6.50006 0.331543C8.09135 0.331543 9.61745 0.963678 10.7427 2.08888C11.8679 3.21409 12.5 4.7402 12.5 6.33148C12.5 7.92276 11.8679 9.44887 10.7427 10.5741L6.50006 14.8167L2.25747 10.5741C1.70029 10.017 1.2583 9.35553 0.956753 8.62758C0.655205 7.89963 0.5 7.11941 0.5 6.33148C0.5 5.54355 0.655205 4.76333 0.956753 4.03538C1.2583 3.30743 1.70029 2.64601 2.25747 2.08888ZM6.50006 8.04566C6.95469 8.04566 7.3907 7.86506 7.71217 7.54359C8.03364 7.22212 8.21424 6.78611 8.21424 6.33148C8.21424 5.87685 8.03364 5.44084 7.71217 5.11937C7.3907 4.7979 6.95469 4.6173 6.50006 4.6173C6.04543 4.6173 5.60943 4.7979 5.28796 5.11937C4.96648 5.44084 4.78588 5.87685 4.78588 6.33148C4.78588 6.78611 4.96648 7.22212 5.28796 7.54359C5.60943 7.86506 6.04543 8.04566 6.50006 8.04566Z" fill="#4A4A4A"/>
</svg>
