<svg width="24" height="24" viewBox="0 0 24 24" fill="none" xmlns="http://www.w3.org/2000/svg">
<path fill-rule="evenodd" clip-rule="evenodd" d="M12.8217 2.95639C15.0505 3.06593 17.1274 3.98502 18.7136 5.57234C20.4056 7.2654 21.3369 9.51593 21.336 11.9093C21.334 16.8482 17.3134 20.8666 12.3742 20.8666C10.5168 20.8666 9.04081 20.296 8.08777 19.7764L3.33691 21.022L4.60835 16.3803C3.82409 15.0219 3.41141 13.4809 3.41206 11.9022C3.41404 6.96342 7.43436 2.94531 12.374 2.94531L12.8217 2.95639ZM8.30786 18.1548L8.57991 18.3161C9.72356 18.9945 11.0345 19.3534 12.3711 19.3539H12.3741C16.4797 19.3539 19.8212 16.0139 19.8229 11.9088C19.8236 9.91944 19.0496 8.04889 17.6433 6.64165C16.2369 5.23433 14.3667 4.45886 12.3771 4.45821C8.26837 4.45821 4.92683 7.79779 4.92519 11.9027C4.92463 13.3095 5.31842 14.6795 6.06406 15.8649L6.24116 16.1466L5.48867 18.8939L8.30786 18.1548ZM16.8891 14.0393C16.8331 13.9459 16.6839 13.8899 16.4599 13.7779C16.236 13.6659 15.1351 13.1244 14.9298 13.0496C14.7246 12.9751 14.5753 12.9377 14.426 13.1617C14.2767 13.3858 13.8476 13.8899 13.7169 14.0393C13.5863 14.1887 13.4557 14.2074 13.2318 14.0953C13.0079 13.9834 12.2864 13.747 11.431 12.9844C10.7653 12.391 10.3159 11.6581 10.1853 11.434C10.0547 11.2099 10.1714 11.0888 10.2835 10.9772C10.3842 10.8769 10.5074 10.7158 10.6194 10.5851C10.7314 10.4544 10.7687 10.361 10.8433 10.2117C10.918 10.0623 10.8806 9.93164 10.8247 9.8196C10.7687 9.70752 10.3208 8.60584 10.1343 8.15769C9.95244 7.72131 9.76783 7.78039 9.63039 7.77349C9.49993 7.76703 9.3505 7.7656 9.20125 7.7656C9.05195 7.7656 8.80935 7.82158 8.60409 8.0457C8.39883 8.26973 7.82034 8.81126 7.82034 9.91285C7.82034 11.0146 8.62276 12.0788 8.73472 12.2282C8.84669 12.3776 10.3137 14.6382 12.56 15.6077C13.0943 15.8384 13.5114 15.976 13.8366 16.0792C14.3731 16.2495 14.8612 16.2255 15.247 16.1679C15.6773 16.1036 16.5719 15.6264 16.7585 15.1037C16.9451 14.5808 16.9451 14.1327 16.8891 14.0393Z" fill="#0A008A"/>
</svg>
