<svg width="35" height="36" viewBox="0 0 35 36" fill="none" xmlns="http://www.w3.org/2000/svg">
<path d="M16.7421 6.04044C17.0223 5.36673 17.9767 5.36673 18.2569 6.04044L21.3573 13.4947C21.4754 13.7787 21.7425 13.9727 22.0491 13.9973L30.0966 14.6425C30.8239 14.7008 31.1188 15.6085 30.5647 16.0832L24.4334 21.3353C24.1998 21.5354 24.0978 21.8494 24.1691 22.1486L26.0423 30.0015C26.2116 30.7113 25.4395 31.2723 24.8168 30.8919L17.9271 26.6837C17.6646 26.5234 17.3344 26.5234 17.0719 26.6837L10.1822 30.8919C9.55947 31.2723 8.78735 30.7113 8.95665 30.0015L10.8299 22.1486C10.9012 21.8494 10.7992 21.5354 10.5656 21.3353L4.4343 16.0832C3.88015 15.6085 4.17507 14.7008 4.9024 14.6425L12.9498 13.9973C13.2565 13.9727 13.5236 13.7787 13.6417 13.4947L16.7421 6.04044Z" stroke="#EA9A3D" stroke-width="1.5" stroke-linecap="round" stroke-linejoin="round"/>
</svg>
