<svg width="21" height="22" viewBox="0 0 21 22" fill="none" xmlns="http://www.w3.org/2000/svg">
<path d="M11.6111 7.74089L14.9444 11.0742M14.9444 11.0742L11.6111 14.4076M14.9444 11.0742H6.05556M20.5 11.0742C20.5 12.3874 20.2413 13.6878 19.7388 14.9011C19.2363 16.1143 18.4997 17.2167 17.5711 18.1453C16.6425 19.0739 15.5401 19.8105 14.3268 20.313C13.1136 20.8156 11.8132 21.0742 10.5 21.0742C9.18678 21.0742 7.88642 20.8156 6.67317 20.313C5.45991 19.8105 4.35752 19.0739 3.42893 18.1453C2.50035 17.2167 1.76375 16.1143 1.2612 14.9011C0.758658 13.6878 0.5 12.3874 0.5 11.0742C0.5 8.42205 1.55357 5.87851 3.42893 4.00315C5.3043 2.12779 7.84784 1.07422 10.5 1.07422C13.1522 1.07422 15.6957 2.12779 17.5711 4.00315C19.4464 5.87851 20.5 8.42205 20.5 11.0742Z" stroke="black" stroke-linecap="round" stroke-linejoin="round"/>
</svg>
