<svg width="21" height="21" viewBox="0 0 21 21" fill="none" xmlns="http://www.w3.org/2000/svg">
<path fill-rule="evenodd" clip-rule="evenodd" d="M17.6265 10.6485C17.6265 10.1222 17.5792 9.61605 17.4915 9.13017H10.5002V12.0016H14.4953C14.3232 12.9295 13.8002 13.7157 13.014 14.242V16.1046H15.413C16.8167 14.8123 17.6265 12.9092 17.6265 10.6485Z" fill="#4285F4"/>
<path fill-rule="evenodd" clip-rule="evenodd" d="M10.5001 17.9029C12.5043 17.9029 14.1847 17.2382 15.4129 16.1045L13.0138 14.2419C12.3491 14.6873 11.4988 14.9505 10.5001 14.9505C8.56667 14.9505 6.9302 13.6447 6.34647 11.8902H3.86646V13.8134C5.0879 16.2395 7.59828 17.9029 10.5001 17.9029Z" fill="#34A853"/>
<path fill-rule="evenodd" clip-rule="evenodd" d="M6.34647 11.8903C6.19801 11.4449 6.11366 10.9692 6.11366 10.4799C6.11366 9.99066 6.19801 9.51491 6.34647 9.06952V7.14624H3.86646C3.36371 8.14837 3.0769 9.28209 3.0769 10.4799C3.0769 11.6777 3.36371 12.8115 3.86646 13.8136L6.34647 11.8903Z" fill="#FBBC05"/>
<path fill-rule="evenodd" clip-rule="evenodd" d="M10.5001 6.00913C11.5899 6.00913 12.5684 6.38366 13.3377 7.11923L15.4668 4.99013C14.1813 3.7923 12.5009 3.05673 10.5001 3.05673C7.59828 3.05673 5.0879 4.7202 3.86646 7.14622L6.34647 9.0695C6.9302 7.31493 8.56667 6.00913 10.5001 6.00913Z" fill="#EA4335"/>
</svg>
