<svg width="88" height="88" viewBox="0 0 88 88" fill="none" xmlns="http://www.w3.org/2000/svg">
<path fill-rule="evenodd" clip-rule="evenodd" d="M88 44C88 55.6695 83.3643 66.8611 75.1127 75.1127C66.8611 83.3643 55.6695 88 44 88C32.3305 88 21.1389 83.3643 12.8873 75.1127C4.6357 66.8611 0 55.6695 0 44C0 32.3305 4.6357 21.1389 12.8873 12.8873C21.1389 4.6357 32.3305 0 44 0C55.6695 0 66.8611 4.6357 75.1127 12.8873C83.3643 21.1389 88 32.3305 88 44ZM55 27.5C55 30.4174 53.8411 33.2153 51.7782 35.2782C49.7153 37.3411 46.9174 38.5 44 38.5C41.0826 38.5 38.2847 37.3411 36.2218 35.2782C34.1589 33.2153 33 30.4174 33 27.5C33 24.5826 34.1589 21.7847 36.2218 19.7218C38.2847 17.6589 41.0826 16.5 44 16.5C46.9174 16.5 49.7153 17.6589 51.7782 19.7218C53.8411 21.7847 55 24.5826 55 27.5ZM44 49.5C38.7343 49.4989 33.579 51.0097 29.1468 53.8527C24.7146 56.6957 21.1917 60.7515 18.997 65.538C22.0917 69.1383 25.9285 72.0267 30.2442 74.0051C34.5599 75.9836 39.2524 77.0052 44 77C48.7476 77.0052 53.4401 75.9836 57.7558 74.0051C62.0715 72.0267 65.9083 69.1383 69.003 65.538C66.8083 60.7515 63.2854 56.6957 58.8532 53.8527C54.421 51.0097 49.2657 49.4989 44 49.5Z" fill="#D9D9D9"/>
</svg>
