<svg width="106" height="95" viewBox="0 0 106 95" fill="none" xmlns="http://www.w3.org/2000/svg">
<path d="M47.4444 69.6667L25.2222 47.4444M25.2222 47.4444L47.4444 25.2222M25.2222 47.4444H103M75.2222 69.6667V75.2222C75.2222 79.6425 73.4663 83.8817 70.3407 87.0073C67.2151 90.1329 62.9758 91.8889 58.5556 91.8889H19.6667C15.2464 91.8889 11.0072 90.1329 7.88155 87.0073C4.75595 83.8817 3 79.6425 3 75.2222V19.6667C3 15.2464 4.75595 11.0072 7.88155 7.88155C11.0072 4.75595 15.2464 3 19.6667 3H58.5556C62.9758 3 67.2151 4.75595 70.3407 7.88155C73.4663 11.0072 75.2222 15.2464 75.2222 19.6667V25.2222" stroke="black" stroke-width="5" stroke-linecap="round" stroke-linejoin="round"/>
</svg>
