<svg width="94" height="88" viewBox="0 0 94 88" fill="none" xmlns="http://www.w3.org/2000/svg">
<path d="M49.6088 11.7501C46.5993 16.7286 37.4011 23.8923 23.7238 19.5196V19.5204C23.6812 19.5143 23.6385 19.5105 23.5936 19.5105C20.3398 19.5105 20.1131 28.5595 25.5886 29.0823C25.6693 29.348 25.7522 29.6008 25.8367 29.8368V44.5523H38.1874V38.8323C39.0482 39.0751 39.8733 39.2144 40.6291 39.2144C45.7377 39.2144 54.6184 31.3339 54.8201 18.9193C53.4531 18.6118 49.6088 15.2239 49.6088 11.7501Z" fill="#FFDCBD"/>
<path d="M57.4148 15.3091C57.4148 7.13239 50.2032 0.506836 39.3892 0.506836C30.4018 0.506836 27.3132 5.46639 27.3132 5.46639C27.3132 5.46639 18.8184 7.30221 18.8184 17.8582C18.8184 27.6706 18.8184 44.553 18.8184 44.553H32.7765H33.4881H43.7968H55.0028V22.5687C55.8888 21.4826 57.4148 19.0645 57.4148 15.3091ZM40.6298 39.2153C39.874 39.2153 39.0489 39.0759 38.1881 38.8331V44.553H25.8374V29.8375C25.7529 29.6015 25.67 29.3489 25.5893 29.0832C20.1138 28.5604 20.3405 19.5113 23.5943 19.5113C23.6385 19.5113 23.6819 19.5152 23.7245 19.5213V19.5204C37.4018 23.893 46.6 16.7286 49.6095 11.7508C49.6095 15.2246 53.4539 18.6117 54.8216 18.9207C54.6184 31.3346 45.7377 39.2153 40.6298 39.2153Z" fill="black"/>
<path d="M16.1636 43.4684L25.8374 38.9869L31.1454 39.1269L38.1881 39.4587L48.308 42.5322V55.4447H16.1636V43.4684Z" fill="#FFDCBD"/>
<path d="M48.3079 56.2353V42.5322L38.1881 39.4587V38.833C35.3262 38.0255 32.0732 36.0696 29.6848 34.2444L48.3079 56.2353Z" fill="#FFB86D"/>
<path d="M31.5917 29.4013C33.4526 29.4013 34.9611 27.8927 34.9611 26.0318C34.9611 24.1709 33.4526 22.6624 31.5917 22.6624C29.7307 22.6624 28.2222 24.1709 28.2222 26.0318C28.2222 27.8927 29.7307 29.4013 31.5917 29.4013Z" fill="#EA9A3D"/>
<path d="M54.387 23.2347C53.96 25.4975 53.2438 27.5601 52.3396 29.3967C50.5578 29.3084 49.1406 27.8357 49.1406 26.0318C49.1406 24.1709 50.6492 22.6624 52.5094 22.6624C53.2043 22.6624 53.8504 22.8731 54.387 23.2347Z" fill="#EA9A3D"/>
<path d="M48.6891 15.7847C46.2291 15.7847 44.1976 17.6548 43.9419 20.0485C42.6046 19.4191 41.4241 19.7601 40.8008 20.0463C40.5435 17.6541 38.5137 15.7847 36.0545 15.7847C33.4218 15.7847 31.2799 17.9264 31.2799 20.5591C31.2799 23.1919 33.4218 25.3338 36.0545 25.3338C38.6286 25.3338 40.7323 23.2864 40.8244 20.7344C41.2209 20.506 42.4805 19.9244 43.9183 20.7396C44.0134 23.2886 46.1165 25.3338 48.6883 25.3338C51.321 25.3338 53.4628 23.1919 53.4628 20.5591C53.4628 17.9264 51.3218 15.7847 48.6891 15.7847ZM36.0545 24.7089C33.7665 24.7089 31.9041 22.8471 31.9041 20.5591C31.9041 18.2712 33.7658 16.4088 36.0545 16.4088C38.3432 16.4088 40.2049 18.2704 40.2049 20.5591C40.2049 22.8478 38.3424 24.7089 36.0545 24.7089ZM48.6891 24.7089C46.4011 24.7089 44.5387 22.8471 44.5387 20.5591C44.5387 18.2712 46.4004 16.4088 48.6891 16.4088C50.9777 16.4088 52.8395 18.2704 52.8395 20.5591C52.8395 22.8478 50.977 24.7089 48.6891 24.7089Z" fill="white"/>
<path d="M48.6917 23.613C48.3158 23.613 48.0106 23.3078 48.0106 22.9318V21.6584C48.0106 21.2824 48.3158 20.9772 48.6917 20.9772C49.0677 20.9772 49.373 21.2824 49.373 21.6584V22.9318C49.373 23.3078 49.0677 23.613 48.6917 23.613Z" fill="black"/>
<path d="M36.2613 23.613C35.8853 23.613 35.5801 23.3078 35.5801 22.9318V21.6584C35.5801 21.2824 35.8853 20.9772 36.2613 20.9772C36.6381 20.9772 36.9425 21.2824 36.9425 21.6584V22.9318C36.9425 23.3078 36.6373 23.613 36.2613 23.613Z" fill="black"/>
<path d="M41.1252 31.705C39.9089 31.705 39.0809 31.2477 38.5793 30.8306C37.9468 30.3054 37.6842 29.7322 37.6728 29.7078C37.602 29.5503 37.6719 29.3661 37.8295 29.2953C37.9863 29.2245 38.1706 29.2946 38.2421 29.4507C38.2779 29.5283 39.1417 31.3391 41.6511 31.0491C41.8231 31.0293 41.9777 31.1517 41.9974 31.323C42.0172 31.4942 41.8947 31.6496 41.7235 31.6694C41.5134 31.6945 41.3147 31.705 41.1252 31.705Z" fill="black"/>
<path d="M33.9898 49.6183C36.3356 49.6183 38.2118 47.3592 39.4767 45.0713H26.0992C28.1398 47.3531 30.9339 49.6183 33.9898 49.6183Z" fill="white"/>
<path d="M59.1311 49.9661L58.2055 48.5253C57.0037 46.6544 55.3125 45.1656 53.3321 44.2096C52.7802 43.944 52.2072 43.7196 51.6142 43.5384L41.3072 40.3995C41.3072 40.7725 40.6586 42.934 39.4774 45.0705C38.2124 47.3584 36.3362 49.6175 33.9905 49.6175C30.9346 49.6175 28.1405 47.3523 26.1 45.0705C24.0297 42.7552 22.7365 40.4231 22.7365 40.4231L13.5262 44.6899C9.75718 46.4367 6.98137 49.7971 5.97822 53.8303L1.8727 66.9498C1.17018 69.1951 0.8125 71.534 0.8125 73.8866V74.9735C0.8125 77.7934 3.09889 80.0791 5.91885 80.0791H15.7381L16.5106 87.4931H51.3098L60.081 51.4441L59.1311 49.9661Z" fill="#A0A3FF"/>
<path d="M5.44009 79.7952H43.9207V75.1497L5.96856 70.9722C3.22175 70.6699 0.8125 72.7243 0.8125 75.3691C0.8125 77.8136 2.88427 79.7952 5.44009 79.7952Z" fill="#FFDCBD"/>
<path d="M91.3441 51.313H52.4661C50.9074 51.313 49.5369 52.3572 49.1069 53.8733L42.3846 77.5606H27.5406C26.8391 77.5606 26.2407 78.1131 26.2164 78.8228C26.1906 79.5678 26.7792 80.1801 27.5104 80.1801H46.1352H85.598L93.1151 53.6907C93.4519 52.4991 92.5683 51.313 91.3441 51.313Z" fill="#0A008A"/>
</svg>
