<svg width="78" height="109" viewBox="0 0 78 109" fill="none" xmlns="http://www.w3.org/2000/svg">
<path d="M57.8403 14.6267C48.9577 16.1067 37.89 12.8013 36.5023 10.6957C33.2865 15.5964 31.6525 15.4429 31.6525 15.4429V19.1181L30.9265 18.392C30.7025 17.8851 30.3469 17.3831 29.8149 17.3831C26.8903 17.3831 26.686 25.5178 31.6084 25.9881C31.7055 26.307 31.8059 26.6049 31.9083 26.8742V39.8948H43.0113V34.7737C43.7577 34.9786 44.4729 35.0961 45.1298 35.0961C49.5073 35.0961 56.9669 28.6589 57.8125 18.3913C57.8634 16.4547 57.8403 14.6267 57.8403 14.6267Z" fill="#FFDCBD"/>
<path d="M44.3636 0.689941C36.7065 0.689941 35.1749 4.77368 35.1749 4.77368C31.9075 4.77368 26.905 10.7466 29.9173 17.3824L29.9329 17.398L31.6531 19.1181V15.4429C31.6531 15.4429 33.2864 15.5964 36.5029 10.6957C37.8906 12.8013 48.9589 16.1067 57.8408 14.6267C57.8408 14.6267 57.8639 16.4547 57.813 18.392C57.813 18.394 57.813 18.3961 57.813 18.3981C61.1299 8.80097 54.471 0.689941 44.3636 0.689941Z" fill="black"/>
<path d="M41.0713 21.1953C40.7327 21.1953 40.4585 20.9211 40.4585 20.5825V19.4377C40.4585 19.0991 40.7327 18.8251 41.0713 18.8251C41.4099 18.8251 41.684 19.0991 41.684 19.4377V20.5825C41.684 20.9211 41.4092 21.1953 41.0713 21.1953Z" fill="black"/>
<path d="M52.4293 21.1953C52.0907 21.1953 51.8165 20.9211 51.8165 20.5825V19.4377C51.8165 19.0991 52.0907 18.8251 52.4293 18.8251C52.7679 18.8251 53.0421 19.0991 53.0421 19.4377V20.5825C53.0421 20.9211 52.7679 21.1953 52.4293 21.1953Z" fill="black"/>
<path d="M45.575 28.3456C44.4818 28.3456 43.7374 27.9342 43.2861 27.5596C42.7175 27.0873 42.4814 26.5724 42.4712 26.5507C42.4074 26.4096 42.4705 26.2432 42.6116 26.1794C42.7528 26.1156 42.9184 26.1788 42.9821 26.3193C43.014 26.3885 43.7903 28.017 46.0466 27.7558C46.2006 27.7381 46.3398 27.8481 46.3574 28.0028C46.375 28.1568 46.2651 28.2959 46.1111 28.3136C45.9245 28.3353 45.7453 28.3456 45.575 28.3456Z" fill="black"/>
<path d="M37.0045 26.2746C38.6775 26.2746 40.0337 24.9183 40.0337 23.2453C40.0337 21.5724 38.6775 20.2161 37.0045 20.2161C35.3315 20.2161 33.9753 21.5724 33.9753 23.2453C33.9753 24.9183 35.3315 26.2746 37.0045 26.2746Z" fill="#EA9A3D"/>
<path d="M57.4974 20.7305C57.1134 22.7649 56.4701 24.6195 55.6564 26.2705C54.0543 26.1911 52.7806 24.8672 52.7806 23.2453C52.7806 21.5726 54.1365 20.2169 55.8092 20.2169C56.4341 20.2162 57.015 20.4055 57.4974 20.7305Z" fill="#EA9A3D"/>
<path d="M52.4288 14.033C50.2173 14.033 48.3912 15.7144 48.1612 17.8655C46.9587 17.2996 45.8974 17.6064 45.3376 17.8636C45.1069 15.7131 43.2815 14.033 41.0707 14.033C38.7038 14.033 36.7787 15.9581 36.7787 18.3249C36.7787 20.6918 38.7045 22.6169 41.0707 22.6169C43.384 22.6169 45.2752 20.7766 45.3586 18.483C45.7142 18.2815 46.8563 17.7597 48.1401 18.4865C48.2256 20.778 50.1162 22.6163 52.4281 22.6163C54.795 22.6163 56.7201 20.6912 56.7201 18.3243C56.7208 15.9588 54.7957 14.033 52.4288 14.033ZM41.0707 22.0565C39.0133 22.0565 37.3398 20.3831 37.3398 18.3256C37.3398 16.2688 39.0133 14.5947 41.0707 14.5947C43.1275 14.5947 44.8015 16.2682 44.8015 18.3256C44.8015 20.3824 43.1275 22.0565 41.0707 22.0565ZM52.4288 22.0565C50.3713 22.0565 48.6979 20.3831 48.6979 18.3256C48.6979 16.2688 50.3713 14.5947 52.4288 14.5947C54.4862 14.5947 56.1596 16.2682 56.1596 18.3256C56.1596 20.3824 54.4862 22.0565 52.4288 22.0565Z" fill="white"/>
<path d="M43.0105 39.8948V34.7736C40.4997 34.0835 37.6415 32.3931 35.4932 30.7815L43.0105 39.8948Z" fill="#FFB86D"/>
<path d="M57.5244 65.6079L60.4063 107.633H16.9023L19.5682 77.6864L18.977 61.7055L16.7189 63.9522L6.68005 56.2481L12.0742 47.4731C13.4088 45.3031 15.3367 43.5584 17.6315 42.4466L30.0052 36.4515L30.4578 36.2324L31.8705 35.548C31.8705 35.548 38.3275 39.7781 42.9694 35.548L45.449 36.4814L45.9532 36.6706L59.0676 41.6055C61.1212 42.3781 62.7929 43.9193 63.7272 45.9028L69.2892 57.7135L57.5244 65.6079Z" fill="#A0A3FF"/>
<path d="M51.1454 64.6528H42.0841C41.783 64.6528 41.5383 64.3963 41.5383 64.0792V46.2744C41.5383 45.958 41.7824 45.7008 42.0841 45.7008H51.1454C51.4464 45.7008 51.6912 45.9573 51.6912 46.2744V64.0792C51.6912 64.3963 51.4471 64.6528 51.1454 64.6528Z" fill="#0A008A"/>
<path d="M77.32 76.2792L69.3977 57.714L63.3526 61.7207L54.86 54.3426L53.1241 48.4425C53.0996 48.254 52.9503 48.106 52.7608 48.0811C51.9285 47.9721 51.2149 48.6673 51.31 49.4938L51.608 52.0784L48.4565 52.4924C47.6065 52.6041 46.7422 52.5301 45.9241 52.275L42.9919 51.3608C42.1113 51.0862 41.1751 51.581 40.9144 52.4587L39.7826 52.1989C39.23 52.0724 38.6767 52.4049 38.5341 52.9487L38.5259 52.9783C38.4037 53.4461 38.6223 53.9355 39.0548 54.1589C38.824 55.0534 39.3597 55.9667 40.2585 56.2097L40.2844 56.2164C40.042 57.1176 40.4908 58.0606 41.3469 58.4482L43.5656 59.4532C44.4 59.8315 45.3145 60.0031 46.2303 59.9533L51.2706 59.5467L68.3854 81.7236L68.3888 81.7277C69.9028 83.5187 72.4834 84.1345 74.6953 83.1088C77.2847 81.9094 78.447 78.886 77.32 76.2792Z" fill="#FFDCBD"/>
<path d="M26.6637 104.067L22.2446 102.096C21.9384 101.96 21.7015 101.705 21.5868 101.39L20.9461 99.6276L23.1791 100.175L23.8911 101.703C24.1307 102.217 24.7362 102.448 25.2581 102.224L24.3282 99.4186C24.1545 98.9723 23.8192 98.6075 23.3889 98.3959L18.7226 96.1019L10.6729 70.0093L16.8228 63.8954L6.79598 56.1921L0.933116 66.3888C0.126786 67.7908 0.029055 69.4899 0.667739 70.9746L16.9396 108.16L20.169 108.309C20.5572 108.327 20.9237 108.13 21.1233 107.797L21.4749 107.211L23.1744 107.35C23.5382 107.38 23.8918 107.22 24.1097 106.926L24.5095 106.387L24.7477 106.45C25.3986 106.621 26.0821 106.324 26.4004 105.731L27.58 106.125C27.8461 105.307 27.4511 104.418 26.6637 104.067Z" fill="#FFDCBD"/>
</svg>
