<svg width="200" height="200" viewBox="0 0 200 200" fill="none" xmlns="http://www.w3.org/2000/svg">
<path fill-rule="evenodd" clip-rule="evenodd" d="M200 100C200 126.522 189.464 151.957 170.711 170.711C151.957 189.464 126.522 200 100 200C73.4783 200 48.043 189.464 29.2893 170.711C10.5357 151.957 0 126.522 0 100C0 73.4783 10.5357 48.043 29.2893 29.2893C48.043 10.5357 73.4783 0 100 0C126.522 0 151.957 10.5357 170.711 29.2893C189.464 48.043 200 73.4783 200 100ZM125 62.5C125 69.1304 122.366 75.4893 117.678 80.1777C112.989 84.8661 106.63 87.5 100 87.5C93.3696 87.5 87.0107 84.8661 82.3223 80.1777C77.6339 75.4893 75 69.1304 75 62.5C75 55.8696 77.6339 49.5107 82.3223 44.8223C87.0107 40.1339 93.3696 37.5 100 37.5C106.63 37.5 112.989 40.1339 117.678 44.8223C122.366 49.5107 125 55.8696 125 62.5ZM100 112.5C88.0325 112.498 76.316 115.931 66.2427 122.393C56.1694 128.854 48.163 138.072 43.175 148.95C50.2085 157.132 58.9284 163.697 68.7368 168.193C78.5452 172.69 89.2101 175.012 100 175C110.79 175.012 121.455 172.69 131.263 168.193C141.072 163.697 149.792 157.132 156.825 148.95C151.837 138.072 143.831 128.854 133.757 122.393C123.684 115.931 111.967 112.498 100 112.5Z" fill="#D9D9D9"/>
</svg>
