<svg width="169" height="167" viewBox="0 0 169 167" fill="none" xmlns="http://www.w3.org/2000/svg">
<rect x="1.67334" width="167.327" height="167" rx="8" fill="white"/>
<path d="M48.4322 50.5409C49.9729 69.1995 63.5541 80.8969 71.5246 80.8969C72.7206 80.8969 74.0229 80.6835 75.382 80.3111V89.6177H95.598V65.9563C95.7846 65.4668 95.9662 64.924 96.1441 64.3445C105.107 63.4899 104.735 48.7072 99.4096 48.7072C98.441 48.7072 97.7935 49.621 97.3858 50.5409L96.0638 51.8605V45.1818C96.0638 45.1818 93.0898 45.4604 87.2334 36.5547C84.7067 40.3811 64.5536 46.3877 48.3816 43.6982C48.3803 43.697 48.3395 47.0191 48.4322 50.5409Z" fill="#D9D9D9"/>
<path d="M72.918 18.3711C86.8599 18.3711 89.6485 25.7922 89.6485 25.7922C95.5977 25.7922 104.706 36.6463 99.2215 48.7051L99.1931 48.7334L96.061 51.8596V45.1809C96.061 45.1809 93.087 45.4595 87.2305 36.5538C84.7038 40.3802 64.5508 46.3868 48.3787 43.6973C48.3787 43.6973 48.3368 47.0195 48.4294 50.5401C48.4294 50.5438 48.4294 50.5475 48.4294 50.5512C42.3901 33.111 54.5145 18.3711 72.918 18.3711Z" fill="#3C3C3C"/>
<path d="M78.9131 52.5717C79.5296 52.5717 80.0288 52.0734 80.0288 51.458V49.3789C80.0288 48.7636 79.5296 48.2656 78.9131 48.2656C78.2965 48.2656 77.7974 48.7636 77.7974 49.3789V51.458C77.7986 52.0734 78.2978 52.5717 78.9131 52.5717Z" fill="#3C3C3C"/>
<path d="M58.2324 52.5717C58.8489 52.5717 59.3481 52.0734 59.3481 51.458V49.3789C59.3481 48.7636 58.8489 48.2656 58.2324 48.2656C57.6158 48.2656 57.1167 48.7636 57.1167 49.3789V51.458C57.1179 52.0734 57.6171 52.5717 58.2324 52.5717Z" fill="#3C3C3C"/>
<path d="M70.7119 68.6259C72.7024 68.6259 74.0578 67.8786 74.8794 67.1979C75.9148 66.3397 76.3447 65.4036 76.3633 65.3642C76.4794 65.1077 76.3646 64.8057 76.1076 64.6898C75.8506 64.5739 75.5491 64.6884 75.4317 64.9436C75.3736 65.0694 73.9602 68.0291 69.852 67.5544C69.5715 67.5223 69.3182 67.7218 69.2849 68.003C69.2515 68.2841 69.4529 68.5357 69.7333 68.5678C70.0756 68.6072 70.4018 68.6259 70.7119 68.6259Z" fill="#3C3C3C"/>
<path d="M86.3187 64.861C89.3648 64.861 91.8342 62.3963 91.8342 59.3561C91.8342 56.3159 89.3648 53.8516 86.3187 53.8516C83.2726 53.8516 80.8032 56.3159 80.8032 59.3561C80.8032 62.3963 83.2726 64.861 86.3187 64.861Z" fill="#F5F5F5"/>
<path d="M49.0054 54.789C49.7047 58.486 50.876 61.8559 52.3574 64.8561C55.2745 64.7131 57.5936 62.306 57.5936 59.3588C57.5936 56.3191 55.125 53.8555 52.0794 53.8555C50.9414 53.8555 49.8838 54.1996 49.0054 54.789Z" fill="#F5F5F5"/>
<path d="M50.417 50.4194C50.417 54.7206 53.9235 58.2192 58.2318 58.2192C62.4426 58.2192 65.8836 54.8784 66.0393 50.7141C68.3769 49.3935 70.4576 50.3419 71.1038 50.7081C71.257 54.8761 74.6992 58.2204 78.9112 58.2204C83.2208 58.2204 86.726 54.7218 86.726 50.4206C86.726 46.1194 83.2195 42.6211 78.9112 42.6211C74.8858 42.6211 71.5622 45.6744 71.1421 49.5822C70.1215 49.1148 68.1903 48.5573 66.0009 49.5858C65.5821 45.6767 62.2572 42.6211 58.2306 42.6211C53.9235 42.6199 50.417 46.1182 50.417 50.4194ZM72.1206 50.4194C72.1206 46.6818 75.1675 43.6399 78.9137 43.6399C82.6598 43.6399 85.7067 46.6805 85.7067 50.4194C85.7067 54.1583 82.6598 57.1992 78.9137 57.1992C75.1675 57.1992 72.1206 54.1583 72.1206 50.4194ZM51.4388 50.4194C51.4388 46.6818 54.4857 43.6399 58.2318 43.6399C61.978 43.6399 65.0249 46.6805 65.0249 50.4194C65.0249 54.1583 61.978 57.1992 58.2318 57.1992C54.4869 57.1992 51.4388 54.1583 51.4388 50.4194Z" fill="white"/>
<path d="M75.3813 89.6156V80.309C79.9529 79.0549 85.157 75.9834 89.0687 73.0547L75.3813 89.6156Z" fill="#F5F5F5"/>
<path d="M75.4078 81.8293L44.8058 95.0627C42.5645 96.0241 39.2765 105.965 37.9272 107.991H133.025C130.599 104.053 125.651 96.365 121.479 94.3474L95.5905 81.8281C95.5892 81.8294 83.8478 89.5047 75.4078 81.8293Z" fill="#D9D9D9"/>
<path d="M56.8411 142.703V128.703H62.6011C63.8411 128.703 64.9011 128.903 65.7811 129.303C66.6744 129.703 67.3611 130.276 67.8411 131.023C68.3211 131.77 68.5611 132.656 68.5611 133.683C68.5611 134.71 68.3211 135.596 67.8411 136.343C67.3611 137.09 66.6744 137.663 65.7811 138.063C64.9011 138.463 63.8411 138.663 62.6011 138.663H58.2811L59.4411 137.443V142.703H56.8411ZM59.4411 137.723L58.2811 136.463H62.4811C63.6277 136.463 64.4877 136.223 65.0611 135.743C65.6477 135.25 65.9411 134.563 65.9411 133.683C65.9411 132.79 65.6477 132.103 65.0611 131.623C64.4877 131.143 63.6277 130.903 62.4811 130.903H58.2811L59.4411 129.623V137.723ZM75.6328 142.843C74.7261 142.843 73.9261 142.676 73.2328 142.343C72.5395 141.996 71.9995 141.476 71.6128 140.783C71.2261 140.076 71.0328 139.19 71.0328 138.123V132.023H73.5328V137.783C73.5328 138.743 73.7461 139.463 74.1728 139.943C74.6128 140.41 75.2328 140.643 76.0328 140.643C76.6195 140.643 77.1261 140.523 77.5528 140.283C77.9928 140.043 78.3328 139.683 78.5728 139.203C78.8261 138.723 78.9528 138.13 78.9528 137.423V132.023H81.4528V142.703H79.0728V139.823L79.4928 140.703C79.1328 141.396 78.6061 141.93 77.9128 142.303C77.2195 142.663 76.4595 142.843 75.6328 142.843ZM88.7461 142.843C87.5727 142.843 86.6661 142.543 86.0261 141.943C85.3861 141.33 85.0661 140.43 85.0661 139.243V129.663H87.5661V139.183C87.5661 139.69 87.6927 140.083 87.9461 140.363C88.2127 140.643 88.5794 140.783 89.0461 140.783C89.6061 140.783 90.0727 140.636 90.4461 140.343L91.1461 142.123C90.8527 142.363 90.4927 142.543 90.0661 142.663C89.6394 142.783 89.1994 142.843 88.7461 142.843ZM83.3061 134.103V132.103H90.4261V134.103H83.3061ZM93.2026 142.703V132.023H95.5826V134.963L95.3026 134.103C95.6226 133.383 96.1226 132.836 96.8026 132.463C97.496 132.09 98.356 131.903 99.3826 131.903V134.283C99.276 134.256 99.176 134.243 99.0826 134.243C98.9893 134.23 98.896 134.223 98.8026 134.223C97.856 134.223 97.1026 134.503 96.5426 135.063C95.9826 135.61 95.7026 136.43 95.7026 137.523V142.703H93.2026ZM107.322 142.703V140.543L107.182 140.083V136.303C107.182 135.57 106.962 135.003 106.522 134.603C106.082 134.19 105.415 133.983 104.522 133.983C103.922 133.983 103.328 134.076 102.742 134.263C102.168 134.45 101.682 134.71 101.282 135.043L100.302 133.223C100.875 132.783 101.555 132.456 102.342 132.243C103.142 132.016 103.968 131.903 104.822 131.903C106.368 131.903 107.562 132.276 108.402 133.023C109.255 133.756 109.682 134.896 109.682 136.443V142.703H107.322ZM103.962 142.843C103.162 142.843 102.462 142.71 101.862 142.443C101.262 142.163 100.795 141.783 100.462 141.303C100.142 140.81 99.9817 140.256 99.9817 139.643C99.9817 139.043 100.122 138.503 100.402 138.023C100.695 137.543 101.168 137.163 101.822 136.883C102.475 136.603 103.342 136.463 104.422 136.463H107.522V138.123H104.602C103.748 138.123 103.175 138.263 102.882 138.543C102.588 138.81 102.442 139.143 102.442 139.543C102.442 139.996 102.622 140.356 102.982 140.623C103.342 140.89 103.842 141.023 104.482 141.023C105.095 141.023 105.642 140.883 106.122 140.603C106.615 140.323 106.968 139.91 107.182 139.363L107.602 140.863C107.362 141.49 106.928 141.976 106.302 142.323C105.688 142.67 104.908 142.843 103.962 142.843Z" fill="black"/>
</svg>
