<svg width="169" height="167" viewBox="0 0 169 167" fill="none" xmlns="http://www.w3.org/2000/svg">
<rect x="1.67334" width="167.327" height="167" rx="8" fill="white"/>
<path d="M59.6438 142.703V128.703H65.4038C66.6438 128.703 67.7038 128.903 68.5838 129.303C69.4772 129.703 70.1638 130.276 70.6438 131.023C71.1238 131.77 71.3638 132.656 71.3638 133.683C71.3638 134.71 71.1238 135.596 70.6438 136.343C70.1638 137.09 69.4772 137.663 68.5838 138.063C67.7038 138.463 66.6438 138.663 65.4038 138.663H61.0838L62.2438 137.443V142.703H59.6438ZM62.2438 137.723L61.0838 136.463H65.2838C66.4305 136.463 67.2905 136.223 67.8638 135.743C68.4505 135.25 68.7438 134.563 68.7438 133.683C68.7438 132.79 68.4505 132.103 67.8638 131.623C67.2905 131.143 66.4305 130.903 65.2838 130.903H61.0838L62.2438 129.623V137.723ZM78.4355 142.843C77.5289 142.843 76.7289 142.676 76.0355 142.343C75.3422 141.996 74.8022 141.476 74.4155 140.783C74.0289 140.076 73.8355 139.19 73.8355 138.123V132.023H76.3355V137.783C76.3355 138.743 76.5489 139.463 76.9755 139.943C77.4155 140.41 78.0355 140.643 78.8355 140.643C79.4222 140.643 79.9289 140.523 80.3555 140.283C80.7955 140.043 81.1355 139.683 81.3755 139.203C81.6289 138.723 81.7555 138.13 81.7555 137.423V132.023H84.2555V142.703H81.8755V139.823L82.2955 140.703C81.9355 141.396 81.4089 141.93 80.7155 142.303C80.0222 142.663 79.2622 142.843 78.4355 142.843ZM91.5488 142.843C90.3755 142.843 89.4688 142.543 88.8288 141.943C88.1888 141.33 87.8688 140.43 87.8688 139.243V129.663H90.3688V139.183C90.3688 139.69 90.4955 140.083 90.7488 140.363C91.0155 140.643 91.3822 140.783 91.8488 140.783C92.4088 140.783 92.8755 140.636 93.2488 140.343L93.9488 142.123C93.6555 142.363 93.2955 142.543 92.8688 142.663C92.4422 142.783 92.0022 142.843 91.5488 142.843ZM86.1088 134.103V132.103H93.2288V134.103H86.1088ZM96.0054 142.703V132.023H98.3854V134.963L98.1054 134.103C98.4254 133.383 98.9254 132.836 99.6054 132.463C100.299 132.09 101.159 131.903 102.185 131.903V134.283C102.079 134.256 101.979 134.243 101.885 134.243C101.792 134.23 101.699 134.223 101.605 134.223C100.659 134.223 99.9054 134.503 99.3454 135.063C98.7854 135.61 98.5054 136.43 98.5054 137.523V142.703H96.0054ZM104.306 142.703V132.023H106.806V142.703H104.306ZM105.566 130.263C105.099 130.263 104.713 130.116 104.406 129.823C104.113 129.53 103.966 129.176 103.966 128.763C103.966 128.336 104.113 127.983 104.406 127.703C104.713 127.41 105.099 127.263 105.566 127.263C106.033 127.263 106.413 127.403 106.706 127.683C107.013 127.95 107.166 128.29 107.166 128.703C107.166 129.143 107.019 129.516 106.726 129.823C106.433 130.116 106.046 130.263 105.566 130.263Z" fill="black"/>
<path d="M115.705 43.244C115.705 30.7336 104.65 20.5977 88.072 20.5977C74.2945 20.5977 69.5597 28.1857 69.5597 28.1857C69.5597 28.1857 56.5371 30.9945 56.5371 47.1451C56.5371 62.1581 56.5371 87.9882 56.5371 87.9882H77.9349H79.026H94.829H112.008V54.3523C113.365 52.6882 115.705 48.9886 115.705 43.244ZM89.9728 79.8203C88.8142 79.8203 87.5493 79.6072 86.2297 79.2357V87.987H67.2961V65.4723C67.1665 65.1113 67.0394 64.7247 66.9158 64.3183C58.5218 63.5182 58.8696 49.6733 63.8576 49.6733C63.9253 49.6733 63.9917 49.6791 64.057 49.6884V49.6873C85.0243 56.3774 99.1251 45.4158 103.739 37.7999C103.739 43.1147 109.632 48.2968 111.729 48.7696C111.418 67.7629 97.8043 79.8203 89.9728 79.8203Z" fill="#3C3C3C"/>
<path d="M86.2299 79.2339C87.5495 79.6053 88.8143 79.8185 89.9729 79.8185C97.8045 79.8185 111.419 67.761 111.728 48.7666C109.631 48.2938 103.738 43.1117 103.738 37.7969C99.1241 45.414 85.0234 56.3744 64.0561 49.6843V49.6854C63.9907 49.6761 63.9254 49.6703 63.8565 49.6703C58.8685 49.6703 58.5209 63.5152 66.9148 64.3152C67.0385 64.7217 67.1656 65.1083 67.2951 65.4693V80.615L52.4663 87.531V105.857H101.744V85.9438L86.2287 81.2263V79.2339H86.2299Z" fill="#D9D9D9"/>
<path d="M101.745 105.86V85.9468L86.2299 81.2294V79.2357C81.8428 78.0002 76.8559 75.0074 73.1934 72.2148L101.745 105.86Z" fill="#F5F5F5"/>
<path d="M76.1176 64.8067C78.9703 64.8067 81.283 62.4986 81.283 59.6514C81.283 56.8042 78.9703 54.4961 76.1176 54.4961C73.2648 54.4961 70.9521 56.8042 70.9521 59.6514C70.9521 62.4986 73.2648 64.8067 76.1176 64.8067Z" fill="#F5F5F5"/>
<path d="M111.064 55.3707C110.41 58.8328 109.312 61.9898 107.926 64.7986C105.194 64.6635 103.021 62.4102 103.021 59.6503C103.021 56.803 105.334 54.4961 108.187 54.4961C109.251 54.4949 110.242 54.8175 111.064 55.3707Z" fill="#F5F5F5"/>
<path d="M102.327 43.9727C98.5562 43.9727 95.442 46.8339 95.0499 50.4963C92.9999 49.5332 91.1902 50.0549 90.2346 50.4928C89.8403 46.8327 86.7285 43.9727 82.9585 43.9727C78.9226 43.9727 75.6392 47.2496 75.6392 51.2777C75.6392 55.3057 78.9226 58.5827 82.9585 58.5827C86.9046 58.5827 90.1296 55.4501 90.2708 51.5455C90.8787 51.1961 92.8098 50.3065 95.015 51.5537C95.1609 55.4536 98.3847 58.5827 102.327 58.5827C106.363 58.5827 109.647 55.3057 109.647 51.2777C109.647 47.2496 106.363 43.9727 102.327 43.9727ZM82.9585 57.6266C79.4512 57.6266 76.5972 54.7782 76.5972 51.2777C76.5972 47.776 79.4512 44.9276 82.9585 44.9276C86.4671 44.9276 89.3211 47.776 89.3211 51.2777C89.3211 54.7782 86.4671 57.6266 82.9585 57.6266ZM102.327 57.6266C98.8199 57.6266 95.9648 54.7782 95.9648 51.2777C95.9648 47.776 98.8188 44.9276 102.327 44.9276C105.836 44.9276 108.69 47.776 108.69 51.2777C108.69 54.7782 105.836 57.6266 102.327 57.6266Z" fill="white"/>
<path d="M102.332 53.2933C101.756 53.2933 101.288 52.8263 101.288 52.251V50.304C101.288 49.7287 101.756 49.2617 102.332 49.2617C102.909 49.2617 103.377 49.7287 103.377 50.304V52.251C103.378 52.8263 102.91 53.2933 102.332 53.2933Z" fill="#3C3C3C"/>
<path d="M83.2772 53.2933C82.7008 53.2933 82.2329 52.8263 82.2329 52.251V50.304C82.2329 49.7287 82.7008 49.2617 83.2772 49.2617C83.8536 49.2617 84.3215 49.7287 84.3215 50.304V52.251C84.3215 52.8263 83.8536 53.2933 83.2772 53.2933Z" fill="#3C3C3C"/>
<path d="M90.7333 68.3307C88.8688 68.3307 87.5994 67.6308 86.8304 66.9938C85.8608 66.1903 85.4582 65.3134 85.4407 65.2762C85.3322 65.0351 85.4396 64.7521 85.6812 64.6438C85.9215 64.5355 86.205 64.6427 86.3136 64.8814C86.3684 65.0002 87.6927 67.7706 91.5396 67.3269C91.8033 67.2966 92.0401 67.4841 92.0705 67.7461C92.1008 68.0081 91.913 68.2457 91.6504 68.276C91.3284 68.3144 91.0239 68.3307 90.7333 68.3307Z" fill="#3C3C3C"/>
<path d="M79.1633 94.9724C82.7594 94.9724 85.6355 91.5162 87.5747 88.0156H67.0684C70.1954 91.5068 74.4786 94.9724 79.1633 94.9724Z" fill="white"/>
<path d="M117.366 96.1994C114.205 91.2887 109.398 87.6589 103.803 85.9587L90.2124 81.8281C90.2124 82.3987 89.2182 85.706 87.4074 88.9748C85.4682 92.4753 82.592 95.9316 78.996 95.9316C74.3113 95.9316 70.028 92.466 66.901 88.9748C63.7273 85.4323 61.7449 81.8642 61.7449 81.8642L49.3396 87.6006C43.7133 90.2022 39.682 95.3423 38.5036 101.418L36.812 110.136L129.796 115.506L117.366 96.1994Z" fill="#D9D9D9"/>
</svg>
