<svg width="171" height="169" viewBox="0 0 171 169" fill="none" xmlns="http://www.w3.org/2000/svg">
<rect x="1.69287" width="169.307" height="169" rx="8" fill="white"/>
<path d="M38.2792 144.458C37.2125 144.458 36.2192 144.284 35.2992 143.938C34.3925 143.578 33.5992 143.078 32.9192 142.438C32.2525 141.784 31.7325 141.018 31.3592 140.138C30.9859 139.258 30.7992 138.298 30.7992 137.258C30.7992 136.218 30.9859 135.258 31.3592 134.378C31.7325 133.498 32.2592 132.738 32.9392 132.098C33.6192 131.444 34.4125 130.944 35.3192 130.598C36.2259 130.238 37.2192 130.058 38.2992 130.058C39.4459 130.058 40.4925 130.258 41.4392 130.658C42.3859 131.044 43.1859 131.624 43.8392 132.398L42.1592 133.978C41.6525 133.431 41.0859 133.024 40.4592 132.758C39.8325 132.478 39.1525 132.338 38.4192 132.338C37.6859 132.338 37.0125 132.458 36.3992 132.698C35.7992 132.938 35.2725 133.278 34.8192 133.718C34.3792 134.158 34.0325 134.678 33.7792 135.278C33.5392 135.878 33.4192 136.538 33.4192 137.258C33.4192 137.978 33.5392 138.638 33.7792 139.238C34.0325 139.838 34.3792 140.358 34.8192 140.798C35.2725 141.238 35.7992 141.578 36.3992 141.818C37.0125 142.058 37.6859 142.178 38.4192 142.178C39.1525 142.178 39.8325 142.044 40.4592 141.778C41.0859 141.498 41.6525 141.078 42.1592 140.518L43.8392 142.118C43.1859 142.878 42.3859 143.458 41.4392 143.858C40.4925 144.258 39.4392 144.458 38.2792 144.458ZM52.5728 144.258V142.098L52.4328 141.638V137.858C52.4328 137.124 52.2128 136.558 51.7728 136.158C51.3328 135.744 50.6661 135.538 49.7728 135.538C49.1728 135.538 48.5795 135.631 47.9928 135.818C47.4195 136.004 46.9328 136.264 46.5328 136.598L45.5528 134.778C46.1261 134.338 46.8061 134.011 47.5928 133.798C48.3928 133.571 49.2195 133.458 50.0728 133.458C51.6195 133.458 52.8128 133.831 53.6528 134.578C54.5061 135.311 54.9328 136.451 54.9328 137.998V144.258H52.5728ZM49.2128 144.398C48.4128 144.398 47.7128 144.264 47.1128 143.998C46.5128 143.718 46.0461 143.338 45.7128 142.858C45.3928 142.364 45.2328 141.811 45.2328 141.198C45.2328 140.598 45.3728 140.058 45.6528 139.578C45.9461 139.098 46.4194 138.718 47.0728 138.438C47.7261 138.158 48.5928 138.018 49.6728 138.018H52.7728V139.678H49.8528C48.9995 139.678 48.4261 139.818 48.1328 140.098C47.8395 140.364 47.6928 140.698 47.6928 141.098C47.6928 141.551 47.8728 141.911 48.2328 142.178C48.5928 142.444 49.0928 142.578 49.7328 142.578C50.3461 142.578 50.8928 142.438 51.3728 142.158C51.8661 141.878 52.2195 141.464 52.4328 140.918L52.8528 142.418C52.6128 143.044 52.1795 143.531 51.5528 143.878C50.9395 144.224 50.1595 144.398 49.2128 144.398ZM71.6212 133.458C72.4746 133.458 73.2279 133.624 73.8812 133.958C74.5479 134.291 75.0679 134.804 75.4412 135.498C75.8146 136.178 76.0012 137.058 76.0012 138.138V144.258H73.5012V138.458C73.5012 137.511 73.2946 136.804 72.8812 136.338C72.4679 135.871 71.8746 135.638 71.1012 135.638C70.5546 135.638 70.0679 135.758 69.6412 135.998C69.2279 136.238 68.9012 136.591 68.6612 137.058C68.4346 137.524 68.3212 138.118 68.3212 138.838V144.258H65.8212V138.458C65.8212 137.511 65.6146 136.804 65.2012 136.338C64.7879 135.871 64.1946 135.638 63.4212 135.638C62.8746 135.638 62.3879 135.758 61.9612 135.998C61.5479 136.238 61.2212 136.591 60.9812 137.058C60.7546 137.524 60.6412 138.118 60.6412 138.838V144.258H58.1412V133.578H60.5212V136.418L60.1012 135.578C60.4612 134.884 60.9812 134.358 61.6612 133.998C62.3546 133.638 63.1412 133.458 64.0212 133.458C65.0212 133.458 65.8879 133.704 66.6212 134.198C67.3679 134.691 67.8612 135.438 68.1012 136.438L67.1212 136.098C67.4679 135.298 68.0412 134.658 68.8412 134.178C69.6412 133.698 70.5679 133.458 71.6212 133.458ZM85.1159 144.398C84.2492 144.398 83.4559 144.198 82.7359 143.798C82.0292 143.398 81.4626 142.798 81.0359 141.998C80.6226 141.184 80.4159 140.158 80.4159 138.918C80.4159 137.664 80.6159 136.638 81.0159 135.838C81.4292 135.038 81.9892 134.444 82.6959 134.058C83.4026 133.658 84.2092 133.458 85.1159 133.458C86.1692 133.458 87.0959 133.684 87.8959 134.138C88.7092 134.591 89.3492 135.224 89.8159 136.038C90.2959 136.851 90.5359 137.811 90.5359 138.918C90.5359 140.024 90.2959 140.991 89.8159 141.818C89.3492 142.631 88.7092 143.264 87.8959 143.718C87.0959 144.171 86.1692 144.398 85.1159 144.398ZM79.1959 148.138V133.578H81.5759V136.098L81.4959 138.938L81.6959 141.778V148.138H79.1959ZM84.8359 142.258C85.4359 142.258 85.9692 142.124 86.4359 141.858C86.9159 141.591 87.2959 141.204 87.5759 140.698C87.8559 140.191 87.9959 139.598 87.9959 138.918C87.9959 138.224 87.8559 137.631 87.5759 137.138C87.2959 136.631 86.9159 136.244 86.4359 135.978C85.9692 135.711 85.4359 135.578 84.8359 135.578C84.2359 135.578 83.6959 135.711 83.2159 135.978C82.7359 136.244 82.3559 136.631 82.0759 137.138C81.7959 137.631 81.6559 138.224 81.6559 138.918C81.6559 139.598 81.7959 140.191 82.0759 140.698C82.3559 141.204 82.7359 141.591 83.2159 141.858C83.6959 142.124 84.2359 142.258 84.8359 142.258ZM97.4268 144.398C96.5202 144.398 95.7202 144.231 95.0268 143.898C94.3335 143.551 93.7935 143.031 93.4068 142.338C93.0202 141.631 92.8268 140.744 92.8268 139.678V133.578H95.3268V139.338C95.3268 140.298 95.5402 141.018 95.9668 141.498C96.4068 141.964 97.0268 142.198 97.8268 142.198C98.4135 142.198 98.9202 142.078 99.3468 141.838C99.7868 141.598 100.127 141.238 100.367 140.758C100.62 140.278 100.747 139.684 100.747 138.978V133.578H103.247V144.258H100.867V141.378L101.287 142.258C100.927 142.951 100.4 143.484 99.7068 143.858C99.0135 144.218 98.2535 144.398 97.4268 144.398ZM106.52 144.258V133.578H108.9V136.518L108.62 135.658C108.94 134.938 109.44 134.391 110.12 134.018C110.813 133.644 111.673 133.458 112.7 133.458V135.838C112.593 135.811 112.493 135.798 112.4 135.798C112.307 135.784 112.213 135.778 112.12 135.778C111.173 135.778 110.42 136.058 109.86 136.618C109.3 137.164 109.02 137.984 109.02 139.078V144.258H106.52ZM120.639 144.258V142.098L120.499 141.638V137.858C120.499 137.124 120.279 136.558 119.839 136.158C119.399 135.744 118.733 135.538 117.839 135.538C117.239 135.538 116.646 135.631 116.059 135.818C115.486 136.004 114.999 136.264 114.599 136.598L113.619 134.778C114.193 134.338 114.873 134.011 115.659 133.798C116.459 133.571 117.286 133.458 118.139 133.458C119.686 133.458 120.879 133.831 121.719 134.578C122.573 135.311 122.999 136.451 122.999 137.998V144.258H120.639ZM117.279 144.398C116.479 144.398 115.779 144.264 115.179 143.998C114.579 143.718 114.113 143.338 113.779 142.858C113.459 142.364 113.299 141.811 113.299 141.198C113.299 140.598 113.439 140.058 113.719 139.578C114.013 139.098 114.486 138.718 115.139 138.438C115.793 138.158 116.659 138.018 117.739 138.018H120.839V139.678H117.919C117.066 139.678 116.493 139.818 116.199 140.098C115.906 140.364 115.759 140.698 115.759 141.098C115.759 141.551 115.939 141.911 116.299 142.178C116.659 142.444 117.159 142.578 117.799 142.578C118.413 142.578 118.959 142.438 119.439 142.158C119.933 141.878 120.286 141.464 120.499 140.918L120.919 142.418C120.679 143.044 120.246 143.531 119.619 143.878C119.006 144.224 118.226 144.398 117.279 144.398ZM132.268 133.458C133.121 133.458 133.881 133.624 134.548 133.958C135.228 134.291 135.761 134.804 136.148 135.498C136.534 136.178 136.728 137.058 136.728 138.138V144.258H134.228V138.458C134.228 137.511 134.001 136.804 133.548 136.338C133.108 135.871 132.488 135.638 131.688 135.638C131.101 135.638 130.581 135.758 130.128 135.998C129.674 136.238 129.321 136.598 129.068 137.078C128.828 137.544 128.708 138.138 128.708 138.858V144.258H126.208V133.578H128.588V136.458L128.168 135.578C128.541 134.898 129.081 134.378 129.788 134.018C130.508 133.644 131.334 133.458 132.268 133.458Z" fill="black"/>
<path d="M82.695 41.1588C82.695 31.8029 74.4284 24.2227 62.0323 24.2227C51.7302 24.2227 48.1898 29.8974 48.1898 29.8974C48.1898 29.8974 38.4521 31.9979 38.4521 44.0763C38.4521 55.3037 38.4521 74.6209 38.4521 74.6209H54.4523H55.2682H67.0848H79.9302V49.4662C80.9449 48.2217 82.695 45.4549 82.695 41.1588ZM63.4536 68.5125C62.5873 68.5125 61.6415 68.3531 60.6547 68.0753V74.62H46.4971V57.7823C46.4003 57.5123 46.3053 57.2232 46.2128 56.9193C39.9362 56.321 40.1963 45.967 43.9261 45.967C43.9767 45.967 44.0263 45.9713 44.0752 45.9783V45.9774C59.7534 50.9807 70.2972 42.783 73.747 37.0874C73.747 41.0621 78.1538 44.9376 79.7217 45.2912C79.4896 59.4953 69.3096 68.5125 63.4536 68.5125Z" fill="#3C3C3C"/>
<path d="M60.6548 68.0747C61.6416 68.3525 62.5874 68.5119 63.4537 68.5119C69.3097 68.5119 79.4897 59.4947 79.7209 45.2897C78.1531 44.9361 73.7462 41.0607 73.7462 37.0859C70.2965 42.7824 59.7527 50.9792 44.0744 45.976V45.9768C44.0256 45.9699 43.9767 45.9655 43.9252 45.9655C40.1954 45.9655 39.9355 56.3195 46.212 56.9178C46.3045 57.2217 46.3996 57.5109 46.4964 57.7808V69.1076L35.4082 74.2798V87.985H72.2552V73.0928L60.654 69.5648V68.0747H60.6548Z" fill="#D9D9D9"/>
<path d="M72.256 87.9859V73.0937L60.6548 69.5658V68.0748C57.3743 67.1508 53.6454 64.9126 50.9067 62.8242L72.256 87.9859Z" fill="#F5F5F5"/>
<path d="M53.0934 57.2851C55.2265 57.2851 56.9558 55.5589 56.9558 53.4296C56.9558 51.3003 55.2265 49.5742 53.0934 49.5742C50.9602 49.5742 49.231 51.3003 49.231 53.4296C49.231 55.5589 50.9602 57.2851 53.0934 57.2851Z" fill="#F5F5F5"/>
<path d="M79.2244 50.2283C78.735 52.8174 77.9139 55.1784 76.8774 57.279C74.835 57.1779 73.2104 55.4928 73.2104 53.4288C73.2104 51.2995 74.9397 49.5742 77.0729 49.5742C77.8686 49.5734 78.6093 49.8146 79.2244 50.2283Z" fill="#F5F5F5"/>
<path d="M72.6914 41.7031C69.8716 41.7031 67.5429 43.8429 67.2497 46.5818C65.7168 45.8616 64.3636 46.2518 63.6491 46.5792C63.3542 43.842 61.0274 41.7031 58.2084 41.7031C55.1905 41.7031 52.7354 44.1538 52.7354 47.1662C52.7354 50.1786 55.1905 52.6293 58.2084 52.6293C61.1591 52.6293 63.5706 50.2866 63.6761 47.3665C64.1307 47.1052 65.5747 46.4399 67.2236 47.3726C67.3327 50.2892 69.7433 52.6293 72.6914 52.6293C75.7092 52.6293 78.1643 50.1786 78.1643 47.1662C78.1643 44.1538 75.7092 41.7031 72.6914 41.7031ZM58.2084 51.9143C55.5858 51.9143 53.4517 49.7841 53.4517 47.1662C53.4517 44.5474 55.5858 42.4172 58.2084 42.4172C60.8319 42.4172 62.966 44.5474 62.966 47.1662C62.966 49.7841 60.8319 51.9143 58.2084 51.9143ZM72.6914 51.9143C70.0687 51.9143 67.9338 49.7841 67.9338 47.1662C67.9338 44.5474 70.0679 42.4172 72.6914 42.4172C75.3149 42.4172 77.4489 44.5474 77.4489 47.1662C77.4489 49.7841 75.3149 51.9143 72.6914 51.9143Z" fill="white"/>
<path d="M72.6954 48.6752C72.2644 48.6752 71.9146 48.3259 71.9146 47.8957V46.4396C71.9146 46.0094 72.2644 45.6602 72.6954 45.6602C73.1264 45.6602 73.4762 46.0094 73.4762 46.4396V47.8957C73.4771 48.3259 73.1273 48.6752 72.6954 48.6752Z" fill="#3C3C3C"/>
<path d="M58.4469 48.6752C58.0159 48.6752 57.666 48.3259 57.666 47.8957V46.4396C57.666 46.0094 58.0159 45.6602 58.4469 45.6602C58.8779 45.6602 59.2278 46.0094 59.2278 46.4396V47.8957C59.2278 48.3259 58.8779 48.6752 58.4469 48.6752Z" fill="#3C3C3C"/>
<path d="M64.0224 59.9177C62.6282 59.9177 61.6789 59.3943 61.104 58.918C60.379 58.3171 60.0779 57.6613 60.0648 57.6334C59.9837 57.4531 60.064 57.2415 60.2446 57.1605C60.4243 57.0795 60.6363 57.1597 60.7175 57.3382C60.7585 57.427 61.7487 59.4989 64.6253 59.167C64.8225 59.1444 64.9995 59.2846 65.0222 59.4806C65.0449 59.6765 64.9044 59.8542 64.7081 59.8768C64.4673 59.9056 64.2396 59.9177 64.0224 59.9177Z" fill="#3C3C3C"/>
<path d="M55.3711 79.8472C58.0601 79.8472 60.2107 77.2624 61.6607 74.6445H46.3271C48.6654 77.2555 51.8682 79.8472 55.3711 79.8472Z" fill="white"/>
<path d="M83.9373 80.7632C81.5737 77.0907 77.9791 74.3762 73.7957 73.1047L63.6332 70.0156C63.6332 70.4424 62.8898 72.9157 61.5357 75.3603C60.0857 77.9782 57.9351 80.5629 55.2461 80.5629C51.7432 80.5629 48.5403 77.9712 46.2021 75.3603C43.829 72.711 42.3466 70.0426 42.3466 70.0426L33.0706 74.3326C28.8635 76.2782 25.8492 80.1223 24.968 84.6657L23.7031 91.1859L93.2316 95.2021L83.9373 80.7632Z" fill="#D9D9D9"/>
<path d="M94.0705 72.6685C95.2034 86.3902 105.19 94.9926 111.05 94.9926C111.93 94.9926 112.887 94.8356 113.887 94.5617V101.406H128.752V84.0051C128.889 83.6451 129.023 83.2459 129.153 82.8197C135.744 82.1913 135.47 71.3199 131.555 71.3199C130.842 71.3199 130.366 71.9919 130.066 72.6685L129.094 73.6389V68.7273C129.094 68.7273 126.908 68.9322 122.601 62.3828C120.743 65.1968 105.925 69.6141 94.0332 67.6362C94.0323 67.6353 94.0023 70.0785 94.0705 72.6685Z" fill="#D9D9D9"/>
<path d="M112.075 49.0117C122.327 49.0117 124.377 54.4693 124.377 54.4693C128.752 54.4693 135.449 62.4515 131.417 71.3197L131.396 71.3405L129.093 73.6395V68.728C129.093 68.728 126.906 68.9328 122.599 62.3835C120.742 65.1975 105.923 69.6148 94.0315 67.6369C94.0315 67.6369 94.0006 70.08 94.0687 72.6691C94.0687 72.6719 94.0687 72.6746 94.0687 72.6773C89.6279 59.8516 98.5431 49.0117 112.075 49.0117Z" fill="#3C3C3C"/>
<path d="M116.483 74.1628C116.937 74.1628 117.304 73.7964 117.304 73.3438V71.8148C117.304 71.3623 116.937 70.9961 116.483 70.9961C116.03 70.9961 115.663 71.3623 115.663 71.8148V73.3438C115.664 73.7964 116.031 74.1628 116.483 74.1628Z" fill="#3C3C3C"/>
<path d="M101.277 74.1628C101.73 74.1628 102.097 73.7964 102.097 73.3438V71.8148C102.097 71.3623 101.73 70.9961 101.277 70.9961C100.824 70.9961 100.457 71.3623 100.457 71.8148V73.3438C100.457 73.7964 100.824 74.1628 101.277 74.1628Z" fill="#3C3C3C"/>
<path d="M110.453 85.9709C111.917 85.9709 112.914 85.4214 113.518 84.9208C114.279 84.2896 114.595 83.6012 114.609 83.5722C114.694 83.3836 114.61 83.1615 114.421 83.0763C114.232 82.991 114.01 83.0752 113.924 83.2629C113.881 83.3554 112.842 85.5321 109.821 85.1829C109.615 85.1593 109.429 85.306 109.404 85.5128C109.379 85.7196 109.528 85.9046 109.734 85.9281C109.985 85.9572 110.225 85.9709 110.453 85.9709Z" fill="#3C3C3C"/>
<path d="M121.929 83.2019C124.169 83.2019 125.985 81.3893 125.985 79.1536C125.985 76.9178 124.169 75.1055 121.929 75.1055C119.689 75.1055 117.874 76.9178 117.874 79.1536C117.874 81.3893 119.689 83.2019 121.929 83.2019Z" fill="#F5F5F5"/>
<path d="M94.4922 75.792C95.0064 78.5108 95.8677 80.9891 96.957 83.1955C99.1019 83.0903 100.807 81.3201 100.807 79.1527C100.807 76.9173 98.992 75.1055 96.7525 75.1055C95.9158 75.1055 95.1381 75.3586 94.4922 75.792Z" fill="#F5F5F5"/>
<path d="M95.5303 72.5787C95.5303 75.7418 98.1086 78.3148 101.277 78.3148C104.373 78.3148 106.903 75.8579 107.017 72.7955C108.736 71.8242 110.266 72.5217 110.741 72.791C110.854 75.8562 113.385 78.3157 116.482 78.3157C119.651 78.3157 122.229 75.7427 122.229 72.5796C122.229 69.4165 119.65 66.8438 116.482 66.8438C113.522 66.8438 111.078 69.0892 110.77 71.963C110.019 71.6193 108.599 71.2093 106.989 71.9657C106.681 69.0909 104.237 66.8438 101.276 66.8438C98.1086 66.8428 95.5303 69.4156 95.5303 72.5787ZM111.489 72.5787C111.489 69.83 113.73 67.593 116.484 67.593C119.239 67.593 121.479 69.8291 121.479 72.5787C121.479 75.3283 119.239 77.5647 116.484 77.5647C113.73 77.5647 111.489 75.3283 111.489 72.5787ZM96.2816 72.5787C96.2816 69.83 98.522 67.593 101.277 67.593C104.031 67.593 106.272 69.8291 106.272 72.5787C106.272 75.3283 104.031 77.5647 101.277 77.5647C98.5229 77.5647 96.2816 75.3283 96.2816 72.5787Z" fill="white"/>
<path d="M113.887 101.406V94.5615C117.248 93.6392 121.075 91.3804 123.951 89.2266L113.887 101.406Z" fill="#F5F5F5"/>
<path d="M113.928 95.7665L91.4085 105.454C89.7592 106.158 87.3395 113.436 86.3467 114.919H156.327C154.542 112.036 150.901 106.408 147.831 104.931L128.78 95.7656C128.779 95.7665 120.139 101.385 113.928 95.7665Z" fill="#D9D9D9"/>
</svg>
